<svg version="1.1" id="Layer_1" xmlns="http://www.w3.org/2000/svg" xmlns:xlink="http://www.w3.org/1999/xlink" x="0px" y="0px"
	 width="100%" viewBox="0 0 980 980" enable-background="new 0 0 980 980" xml:space="preserve">
<path fill="#000000" opacity="1.000000" stroke="none" 
	d="
M617.000000,981.000000 
	C411.333344,981.000000 206.166672,981.000000 1.000000,981.000000 
	C1.000000,654.333313 1.000000,327.666656 1.000000,1.000000 
	C327.666656,1.000000 654.333313,1.000000 981.000000,1.000000 
	C981.000000,327.666656 981.000000,654.333313 981.000000,981.000000 
	C859.833313,981.000000 738.666687,981.000000 617.000000,981.000000 
M665.417908,664.040894 
	C665.158875,664.336182 664.899841,664.631409 663.998840,665.101746 
	C655.946777,671.467773 646.576050,675.053162 636.046814,677.996094 
	C619.058533,681.294373 601.966309,681.085144 584.945740,678.747925 
	C552.465759,674.287781 521.615112,664.062927 491.863678,650.628174 
	C474.983856,643.005798 458.620453,634.239746 441.707611,625.505737 
	C441.171906,625.318176 440.636200,625.130615 439.706207,624.413391 
	C438.138611,623.615967 436.571014,622.818542 435.003998,621.982666 
	C435.003998,621.982666 434.971252,622.004028 434.579865,621.510925 
	C433.486572,620.912659 432.393250,620.314392 431.059814,619.744446 
	C431.059814,619.744446 431.088013,619.984558 430.992065,619.499146 
	C430.747894,619.257141 430.454346,619.124207 429.646820,618.585144 
	C390.927887,595.275452 354.588806,568.706421 320.973480,538.501404 
	C290.800903,511.389893 263.178589,481.886017 240.127090,448.403595 
	C224.696762,425.990936 211.152573,402.456665 204.448563,375.767212 
	C197.551071,348.307434 198.033249,322.438202 223.639374,302.797913 
	C225.063812,301.864563 226.488235,300.931244 228.590088,299.839233 
	C230.395706,298.888519 232.201340,297.937836 234.770630,296.934875 
	C237.916489,295.936096 241.045212,294.878937 244.211136,293.948425 
	C259.581787,289.430634 275.316132,290.580353 291.671936,291.347534 
	C293.433258,291.485596 295.194580,291.623627 297.660187,291.910126 
	C298.139130,291.926727 298.618042,291.943329 299.768555,292.331299 
	C304.628357,293.207031 309.539459,293.866241 314.337616,295.002350 
	C325.183197,297.570435 335.973053,300.373962 347.222778,303.494720 
	C347.800934,303.605438 348.379089,303.716156 349.421387,303.972595 
	C349.421387,303.972595 349.903473,304.038055 350.300873,304.462280 
	C350.855347,304.575256 351.409821,304.688263 352.459167,304.927734 
	C352.626617,304.958588 352.794037,304.989410 353.319305,305.460632 
	C353.861237,305.579987 354.403168,305.699341 355.281250,306.023010 
	C355.281250,306.023010 355.666290,306.103516 356.150299,306.508575 
	C356.758820,306.629608 357.367310,306.750641 358.371918,307.036102 
	C358.371918,307.036102 358.797424,307.089783 359.333130,307.543701 
	C360.889099,308.006348 362.445068,308.468994 364.026276,308.994537 
	C364.026276,308.994537 364.086609,308.963684 364.564117,309.374329 
	C365.363892,309.574951 366.163666,309.775543 366.976715,310.036224 
	C366.976715,310.036224 367.029633,310.004822 367.519989,310.497375 
	C403.976379,324.605286 438.473450,342.555206 471.476471,363.447144 
	C472.542175,364.121796 473.904022,364.328583 475.210083,365.337494 
	C476.011932,366.059357 476.813782,366.781189 477.615631,367.503052 
	C477.767670,367.287506 477.919708,367.071960 478.071777,366.856445 
	C477.061737,366.190948 476.051727,365.525482 474.597229,364.379669 
	C458.986084,354.500000 443.770172,343.911926 427.661377,334.924194 
	C408.510284,324.238953 388.591888,314.928986 368.556671,304.612488 
	C367.979279,304.430786 367.401855,304.249054 366.321045,303.614044 
	C363.215515,302.415619 360.109955,301.217194 356.442688,299.524170 
	C353.615112,298.625702 350.767151,297.786438 347.963409,296.818848 
	C332.953033,291.638733 317.953705,286.426605 302.492432,281.053772 
	C302.179321,280.947327 301.857666,280.903259 300.921661,280.480194 
	C299.957764,280.343689 298.993835,280.207184 297.383240,279.677917 
	C281.406006,276.858154 265.512146,273.297485 249.421387,271.486023 
	C239.148056,270.329437 228.583359,271.761047 217.542892,272.019653 
	C217.347275,272.070679 217.151642,272.121704 216.191254,272.074432 
	C214.702606,272.347504 213.213974,272.620544 211.349609,272.912292 
	C211.349609,272.912292 211.015991,273.086151 210.181900,273.026428 
	C206.338928,273.949066 202.495956,274.871674 197.903412,275.913635 
	C175.016205,282.307831 158.733032,295.910522 151.622864,319.084839 
	C147.234650,333.387390 147.811264,347.975739 150.633377,362.499329 
	C155.843719,389.313599 167.373749,413.550323 181.445984,436.674133 
	C197.229095,462.609253 215.814590,486.423889 236.315979,508.805847 
	C262.563141,537.460632 290.848083,563.860840 322.187744,587.752136 
	C322.775177,588.152039 323.362610,588.552002 323.966461,589.074158 
	C323.966461,589.074158 324.088715,589.057800 324.315979,589.510925 
	C324.863556,589.885315 325.411133,590.259705 326.384216,590.965271 
	C326.550812,591.032837 326.717377,591.100342 327.151642,591.629395 
	C327.730560,592.029968 328.309479,592.430603 328.997223,593.011292 
	C328.997223,593.011292 329.203522,593.052734 329.552338,593.579834 
	C333.033447,596.037537 336.514526,598.495239 339.992401,601.016357 
	C339.992401,601.016357 340.054871,601.004944 340.391937,601.575745 
	C352.291809,609.615723 364.191681,617.655762 376.503418,625.932373 
	C376.503418,625.932373 376.963928,626.048950 377.176208,626.444641 
	C377.364349,626.712830 377.622162,626.842041 378.041565,626.970764 
	C378.041565,626.970764 378.206055,626.946411 378.626465,627.446228 
	C382.359924,629.677551 386.093384,631.908875 389.846069,634.151306 
	C389.846069,634.151306 389.866516,634.143311 390.289917,634.663513 
	C394.517151,637.084473 398.744385,639.505432 402.987610,642.033875 
	C402.987610,642.033875 403.095154,642.018005 403.490845,642.549011 
	C421.673187,651.979431 439.507477,662.170105 458.108398,670.686218 
	C500.284454,689.996033 543.819885,704.955200 590.714539,707.447815 
	C605.035950,708.208984 619.223938,707.307922 633.764038,702.964966 
	C635.586975,702.339050 637.409973,701.713135 639.640503,701.031006 
	C639.640503,701.031006 640.003845,700.838074 640.555054,700.840393 
	C641.009827,700.565491 641.464539,700.290588 642.013489,700.051086 
	C642.013489,700.051086 642.048950,699.956909 642.718811,699.940308 
	C644.099731,699.281372 645.480713,698.622437 647.467590,697.844666 
	C647.993713,697.544556 648.519897,697.244446 649.726746,696.806335 
	C650.886475,696.174744 652.080017,695.597778 653.200745,694.903320 
	C666.049866,686.940735 675.722351,676.413086 680.441956,661.149963 
	C680.549072,660.779236 680.656189,660.408508 680.952026,659.443359 
	C681.020508,659.033936 681.088928,658.624451 681.584656,657.576538 
	C684.214966,648.424011 684.649353,639.177002 683.598206,630.127136 
	C680.023926,638.773438 676.470642,647.369141 672.515808,656.226562 
	C672.266907,656.441467 672.092957,656.705750 671.463684,657.352600 
	C670.883606,658.211182 670.303589,659.069763 669.912964,659.935913 
	C669.912964,659.935913 669.920471,659.746521 669.343384,660.008545 
	C668.826721,660.657104 668.309998,661.305603 667.927734,661.992432 
	C667.927734,661.992432 667.965942,661.857971 667.453308,662.064331 
	C667.260864,662.369202 667.068481,662.674011 666.975830,662.999512 
	C666.975830,662.999512 666.996216,662.899719 666.477722,663.079041 
	C666.292419,663.380432 666.107178,663.681824 665.990967,663.992004 
	C665.990967,663.992004 665.997314,663.922668 665.417908,664.040894 
M810.473022,428.082367 
	C810.291077,428.381958 810.109131,428.681580 809.368896,429.351654 
	C804.750854,434.287231 800.077820,439.172729 795.525879,444.168549 
	C785.601379,455.060913 775.738464,466.009430 765.445862,477.140259 
	C765.207703,477.345764 765.058838,477.602936 764.408386,478.235107 
	C761.477478,481.498596 758.546570,484.762054 755.048950,488.470337 
	C751.007019,492.385437 750.378235,486.636719 747.683533,485.363586 
	C734.176514,470.492767 720.669495,455.621948 706.902466,440.137146 
	C701.964417,435.039124 697.026367,429.941132 691.758179,424.348114 
	C691.137451,423.904816 690.516724,423.461517 689.818604,422.328796 
	C687.235657,419.502838 684.652649,416.676880 681.976807,413.452148 
	C681.976807,413.452148 681.843262,413.065063 681.756165,412.406158 
	C680.161133,410.632141 678.566162,408.858124 676.984192,407.026764 
	C676.984192,407.026764 676.927856,407.043610 676.763428,406.587494 
	C676.586670,406.306793 676.351257,406.089722 675.717529,405.350830 
	C672.776733,400.776978 668.550354,399.298401 663.297485,400.025513 
	C661.664490,400.251526 659.973755,400.054291 658.309570,400.063324 
	C651.224060,400.101776 651.192200,400.103455 651.190063,407.322235 
	C651.171021,472.561615 651.156067,537.800964 651.193176,603.040344 
	C651.194275,604.953491 651.782471,606.866211 653.006165,608.964539 
	C668.824524,609.011963 684.645813,608.903625 700.459290,609.205811 
	C704.947388,609.291626 706.038635,607.837341 706.010376,603.520508 
	C705.837952,577.210815 705.945374,550.899231 705.959167,524.588318 
	C705.960205,522.513062 705.959290,520.437805 705.959290,518.362549 
	C706.627625,517.950806 707.295959,517.539124 707.964294,517.127380 
	C709.980591,519.648499 711.996948,522.169556 714.095276,524.893921 
	C714.095276,524.893921 714.298645,524.975708 714.574463,525.549866 
	C725.705872,537.242798 736.806641,548.965149 747.988892,560.609253 
	C751.014709,563.760071 754.673889,563.909607 757.562012,560.905151 
	C766.431030,551.679077 775.168457,542.326477 784.027283,533.023926 
	C784.027283,533.023926 784.027283,532.953735 784.622009,532.672974 
	C787.515015,529.557068 790.408020,526.441162 793.250122,523.283508 
	C793.250122,523.283508 793.217163,523.340393 793.783997,523.078125 
	C794.286316,522.434814 794.788635,521.791504 795.200623,521.180481 
	C795.200623,521.180481 795.233032,521.270752 795.813782,521.009216 
	C796.598145,520.032227 797.382446,519.055176 798.588013,517.885681 
	C798.588013,517.885681 798.925293,517.568298 799.562744,518.213989 
	C799.730591,520.687866 800.039490,523.161499 800.044250,525.635681 
	C800.093384,551.255310 800.088562,576.875000 800.110596,602.494690 
	C800.116516,609.361694 800.135071,609.361694 807.934692,609.035034 
	C820.287598,608.997375 832.640564,608.959717 845.889099,609.075500 
	C856.510986,609.326355 854.863098,609.559143 854.870483,600.544373 
	C854.921631,538.257446 854.898804,475.970520 854.894836,413.683594 
	C854.893982,400.078491 854.883240,399.976196 841.175293,400.216217 
	C838.706055,400.259460 835.539062,400.799377 833.934570,402.373901 
	C828.968628,407.247284 824.601318,412.730713 819.966858,417.967194 
	C819.966858,417.967194 819.976562,418.002167 819.397522,418.248962 
	C818.144470,419.630127 816.891418,421.011322 815.276306,422.681458 
	C815.276306,422.681458 815.032837,423.075623 814.555664,423.308990 
	C814.269348,423.742676 813.983032,424.176361 813.765747,424.783142 
	C813.765747,424.783142 813.938843,424.714050 813.371338,424.799561 
	C813.014343,425.223969 812.657288,425.648376 812.137085,426.162048 
	C812.137085,426.162048 812.090576,426.342163 811.641235,426.626740 
	C811.395020,427.082611 811.148804,427.538513 810.984192,427.988342 
	C810.984192,427.988342 810.978088,427.906708 810.473022,428.082367 
M559.394348,572.502869 
	C559.510925,572.726624 559.684143,572.890747 560.010193,573.576477 
	C560.348450,574.041016 560.686707,574.505554 561.151611,575.664368 
	C566.868530,585.538513 572.705688,595.346130 578.227417,605.328247 
	C579.832947,608.230652 581.747803,609.209778 584.940552,609.186340 
	C601.769226,609.062439 618.599182,609.129272 635.428650,609.089661 
	C636.850342,609.086304 638.271301,608.785645 639.494202,608.645752 
	C641.740356,599.890625 635.546509,594.972168 631.888489,588.425476 
	C631.563354,587.954956 631.238281,587.484375 630.697388,586.360291 
	C627.805603,581.876709 624.913818,577.393188 621.935181,572.356812 
	C621.617432,571.919617 621.299683,571.482361 620.826538,570.443176 
	C620.224548,569.625061 619.622498,568.806885 618.865295,567.303101 
	C612.502319,556.807434 606.139282,546.311768 599.735107,535.748230 
	C604.142700,531.543701 608.662415,527.864319 612.432129,523.532349 
	C635.167419,497.406189 636.105835,454.543457 614.651978,427.357544 
	C599.456726,408.102478 578.746948,400.523590 555.034180,400.252441 
	C526.709290,399.928558 498.376953,400.293549 470.049927,400.081787 
	C465.223450,400.045685 463.914886,401.418152 463.926117,406.233459 
	C464.079285,471.888855 464.025452,537.544739 464.036316,603.200500 
	C464.036591,604.977417 464.188812,606.754333 464.278748,608.717651 
	C481.961090,608.717651 499.178833,608.717651 517.154480,608.717651 
	C517.154480,588.300720 517.154480,568.265930 517.154480,547.916260 
	C526.066101,547.916260 534.226929,547.751892 542.369507,548.062927 
	C543.893494,548.121155 545.782959,549.787354 546.749512,551.220337 
	C549.990295,556.024902 552.889587,561.059692 556.025452,566.656372 
	C556.686401,567.759094 557.347412,568.861755 558.001953,570.039246 
	C558.001953,570.039246 558.076721,570.045837 558.138123,570.530334 
	C558.423523,570.906982 558.708923,571.283630 559.088013,571.949585 
	C559.088013,571.949585 559.318115,572.148438 559.394348,572.502869 
M691.729736,665.729858 
	C691.520569,666.483704 691.311401,667.237488 690.730774,668.589172 
	C683.421936,686.498047 670.864380,699.401550 653.586304,707.956543 
	C630.654541,719.310852 606.138367,720.566895 581.383240,718.725098 
	C553.553650,716.654541 526.638977,709.762451 500.362518,700.534363 
	C438.792725,678.911560 382.647247,647.153625 330.161163,608.694153 
	C318.264618,599.976807 306.780243,590.696899 294.945801,581.822510 
	C294.945801,581.822510 295.084137,581.989990 294.978943,581.442200 
	C294.677368,581.233154 294.375793,581.024170 293.696075,580.277832 
	C283.090973,570.865356 272.485870,561.452942 261.609741,551.513733 
	C260.716797,550.752441 259.823853,549.991089 258.889984,549.090088 
	C258.889984,549.090088 258.746704,549.064270 258.411499,548.507568 
	C244.803040,534.122559 230.793625,520.092590 217.674164,505.274658 
	C194.324295,478.901886 173.934189,450.373108 158.157883,418.758881 
	C145.100449,392.592957 135.435654,365.445923 137.008347,335.598175 
	C138.425217,308.707458 149.903610,287.426178 173.449234,273.424683 
	C190.806976,263.102814 210.079056,259.955658 230.800522,258.942993 
	C235.833923,258.942993 240.867310,258.942993 245.900711,258.942993 
	C245.897186,258.462616 245.893661,257.982239 245.890121,257.501862 
	C239.979324,257.501862 234.068512,257.501862 227.299042,257.391632 
	C226.437866,257.445953 225.576675,257.500275 224.000214,257.387482 
	C222.501678,257.551941 221.003143,257.716400 218.637039,257.877960 
	C209.907654,258.936218 201.011185,259.253052 192.476761,261.176361 
	C146.778198,271.475128 125.295105,303.266296 127.329422,347.096893 
	C128.511505,372.565857 136.618668,396.343201 147.746033,419.080963 
	C172.465591,469.593140 208.278931,511.629181 248.650391,551.153198 
	C248.688950,568.915344 248.782440,586.677673 248.716644,604.439453 
	C248.704453,607.732483 249.574799,609.185303 253.187515,609.140808 
	C268.789215,608.948730 284.393829,608.998108 300.751434,609.078186 
	C301.440979,608.036072 302.130493,606.994019 302.920471,605.135010 
	C302.893463,603.766174 302.866486,602.397400 303.045288,600.370667 
	C304.052368,600.328186 305.365631,599.852905 306.016785,600.313538 
	C310.219818,603.286804 314.270050,606.475281 318.385345,609.573303 
	C369.437500,648.005920 424.111542,680.012146 484.351746,701.822266 
	C524.921082,716.510498 566.399658,726.851013 610.128601,723.966553 
	C628.428589,722.759399 646.013123,718.860901 661.902283,709.285095 
	C676.520935,700.475159 687.105347,688.313232 692.251221,671.175842 
	C692.432739,670.461975 692.614319,669.748108 692.924500,668.523315 
	C692.946777,668.349121 692.968994,668.174927 693.449707,667.409729 
	C694.746033,659.452148 696.042419,651.494568 697.338745,643.536987 
	C697.088318,643.498840 696.837830,643.460693 696.587402,643.422607 
	C695.105286,650.656616 693.623230,657.890686 692.062073,665.177734 
	C692.062073,665.177734 692.104431,665.263062 691.729736,665.729858 
M332.860687,471.626343 
	C314.474457,451.208405 295.624451,431.181122 277.933197,410.177795 
	C270.981354,401.924500 263.645386,398.865601 253.451950,400.094452 
	C250.203064,400.486145 248.656540,401.068817 248.718491,404.658813 
	C248.888062,414.487091 248.658524,424.322632 248.860733,434.149658 
	C248.905975,436.348480 249.601410,438.836212 250.808350,440.651947 
	C254.396042,446.049225 258.296967,451.247345 262.236145,456.400482 
	C289.389618,491.921753 321.260254,522.768982 355.801880,551.000549 
	C359.488220,554.013489 361.873505,553.686401 364.929535,550.417786 
	C373.915283,540.807007 383.069275,531.353149 392.191528,521.870667 
	C393.476166,520.535339 394.951416,519.383362 397.410400,517.190613 
	C397.410400,520.819397 397.409698,522.942810 397.410553,525.066223 
	C397.417358,542.396240 397.524200,559.727295 397.349731,577.055542 
	C397.313629,580.642212 398.381744,582.931763 401.415497,584.826538 
	C412.983734,592.051575 424.514069,599.343201 435.907562,606.839478 
	C441.045563,610.219971 446.258423,608.988708 451.943878,608.701111 
	C451.943878,605.946777 451.943848,603.796997 451.943878,601.647217 
	C451.944794,538.659058 451.948303,475.670868 451.944458,412.682678 
	C451.943695,400.193604 451.924805,400.418365 439.368744,400.092224 
	C434.378204,399.962616 431.121521,401.660095 427.811646,405.322571 
	C405.037292,430.522552 382.032257,455.514099 359.080292,480.553345 
	C356.088806,483.816895 352.976654,486.969849 349.702728,490.402222 
	C343.982971,484.031494 338.653931,478.095978 332.860687,471.626343 
z"/>
<path fill="#697948" opacity="1.000000" stroke="none" 
	d="
M321.827087,587.346069 
	C290.848083,563.860840 262.563141,537.460632 236.315979,508.805847 
	C215.814590,486.423889 197.229095,462.609253 181.445984,436.674133 
	C167.373749,413.550323 155.843719,389.313599 150.633377,362.499329 
	C147.811264,347.975739 147.234650,333.387390 151.622864,319.084839 
	C158.733032,295.910522 175.016205,282.307831 198.547531,276.074249 
	C201.655579,278.617798 204.106964,280.474670 206.875961,276.527649 
	C207.035660,276.300018 208.259995,276.819244 208.945374,277.006622 
	C208.901871,277.022369 209.003754,277.008057 209.232407,276.784302 
	C209.979370,275.402405 210.497681,274.244263 211.015991,273.086151 
	C211.015991,273.086151 211.349609,272.912292 211.922699,272.916260 
	C213.982529,272.671082 215.469269,272.421906 216.955994,272.172760 
	C217.151642,272.121704 217.347275,272.070679 218.256439,272.050110 
	C225.444839,271.706604 229.909805,275.042236 233.776016,279.800415 
	C236.473358,283.120117 237.263245,286.273621 235.163559,290.301361 
	C234.167679,292.211761 234.355438,294.739227 234.006958,296.987122 
	C232.201340,297.937836 230.395706,298.888519 227.998444,299.808167 
	C224.141510,298.361298 223.419098,300.448456 223.010727,302.968262 
	C198.033249,322.438202 197.551071,348.307434 204.448563,375.767212 
	C211.152573,402.456665 224.696762,425.990936 240.127090,448.403595 
	C263.178589,481.886017 290.800903,511.389893 320.973480,538.501404 
	C354.588806,568.706421 390.927887,595.275452 430.035980,618.993713 
	C430.641571,619.601501 430.862518,619.795593 431.088013,619.984558 
	C431.088013,619.984558 431.059814,619.744446 431.232666,620.090454 
	C432.636932,625.154663 436.603943,624.595032 440.100494,624.942993 
	C440.636200,625.130615 441.171906,625.318176 441.770020,626.073730 
	C441.284332,633.426636 446.941284,636.915466 450.885010,639.848022 
	C460.111542,646.708740 470.468658,652.061646 480.457733,657.870789 
	C481.942841,658.734497 484.011414,659.333435 485.640991,659.057312 
	C489.095581,658.471863 490.042450,660.687561 492.312195,662.449402 
	C497.400848,666.399353 504.014801,669.555054 510.330200,670.300171 
	C513.926575,670.724487 518.069214,665.898254 515.979187,674.071838 
	C515.877869,674.468262 516.338989,674.982056 516.442078,675.461914 
	C516.823669,677.237732 517.164856,679.022217 517.521240,680.803345 
	C515.033569,681.246948 511.970001,682.840515 510.158783,681.933411 
	C502.633148,678.164368 493.318756,679.604309 486.619843,673.609863 
	C485.875183,672.943542 484.358063,673.208557 483.257507,672.858398 
	C480.415527,671.953857 477.595612,670.976318 474.786407,669.973206 
	C470.991577,668.618286 467.215302,667.211304 463.430573,665.827942 
	C459.269470,664.307068 455.103149,662.800171 450.947754,661.263794 
	C447.479645,659.981567 443.951843,658.825623 440.586700,657.311218 
	C438.087067,656.186340 435.366821,654.991577 433.548828,653.067993 
	C431.686127,651.097229 430.546844,650.066833 427.406494,650.484863 
	C424.450653,650.878357 419.601868,649.996033 418.367828,647.975708 
	C414.516571,641.670532 408.925690,642.018860 403.095154,642.018005 
	C403.095154,642.018005 402.987610,642.033875 402.955994,641.599792 
	C402.647675,637.757141 401.219482,635.049194 397.657776,634.422913 
	C395.122711,633.977112 392.467896,634.212097 389.866516,634.143311 
	C389.866516,634.143311 389.846069,634.151306 389.963318,633.816772 
	C390.729309,631.457336 391.378021,629.432373 391.719360,628.366821 
	C388.197571,627.482910 385.594971,626.606262 382.922791,626.245850 
	C381.409576,626.041687 379.782074,626.684875 378.206055,626.946411 
	C378.206055,626.946411 378.041565,626.970764 377.839050,626.762939 
	C377.421204,626.374634 377.197021,626.205933 376.963928,626.048950 
	C376.963928,626.048950 376.503418,625.932373 376.372101,625.543945 
	C379.593567,616.592163 367.847504,619.206299 367.404999,613.338318 
	C367.373444,612.919373 365.808899,612.584167 364.933197,612.278564 
	C364.642731,612.177185 364.236633,612.398376 363.951904,612.290833 
	C359.429779,610.582214 354.045776,610.181824 352.312134,604.282593 
	C352.058960,603.421021 350.790680,602.446228 349.852997,602.271912 
	C346.620209,601.670715 343.325806,601.400940 340.054871,601.004944 
	C340.054871,601.004944 339.992401,601.016357 340.041870,600.670715 
	C339.355530,595.890076 335.938232,593.607605 329.203522,593.052734 
	C329.203522,593.052734 328.997223,593.011292 328.781189,592.715942 
	C328.004761,592.002991 327.444336,591.585449 326.883942,591.167847 
	C326.717377,591.100342 326.550812,591.032837 326.015167,590.608643 
	C325.126984,589.853943 324.607849,589.455872 324.088715,589.057800 
	C324.088715,589.057800 323.966461,589.074158 323.889954,588.799438 
	C323.151306,588.131836 322.489197,587.738953 321.827087,587.346069 
M232.026672,284.019318 
	C232.026672,284.019318 231.994736,284.043182 232.026672,284.019318 
M228.482254,297.481628 
	C228.482254,297.481628 228.486771,297.513855 228.482254,297.481628 
M328.517487,589.518555 
	C328.517487,589.518555 328.513062,589.486023 328.517487,589.518555 
z"/>
<path fill="#6A7C4A" opacity="1.000000" stroke="none" 
	d="
M798.925293,517.568298 
	C798.925293,517.568298 798.588013,517.885681 798.072144,518.101013 
	C796.781860,519.301147 796.007446,520.285950 795.233032,521.270752 
	C795.233032,521.270752 795.200623,521.180481 794.992920,521.337891 
	C794.262573,522.110291 793.739868,522.725342 793.217163,523.340393 
	C793.217163,523.340393 793.250122,523.283508 792.887573,523.236206 
	C790.418518,523.505981 787.164795,523.116516 786.443726,524.287109 
	C784.932129,526.741028 784.753296,530.015930 784.027283,532.953735 
	C784.027283,532.953735 784.027283,533.023926 783.746094,532.887085 
	C782.141663,531.653015 780.818420,530.555847 778.499695,528.633240 
	C778.526306,535.154236 774.513123,536.460632 770.133118,537.430664 
	C769.204651,537.636353 768.259033,538.211670 767.543335,538.861267 
	C760.900391,544.890564 752.846985,545.244324 744.599609,544.451721 
	C742.729370,544.271973 739.790894,543.503967 739.337891,542.272949 
	C737.181824,536.414673 727.124695,538.833191 727.520325,530.675842 
	C727.526917,530.539978 726.955872,530.404785 726.686157,530.222412 
	C723.907288,528.343262 721.134949,526.454468 718.360840,524.568359 
	C718.555786,524.170654 718.750671,523.772888 718.945618,523.375122 
	C717.396606,523.908691 715.847656,524.442200 714.298645,524.975708 
	C714.298645,524.975708 714.095276,524.893921 713.995483,524.455139 
	C713.106567,521.833008 712.535950,519.531982 711.447205,517.509949 
	C710.783142,516.276489 709.321350,515.472595 708.217896,514.475708 
	C707.226074,515.688538 705.810852,516.761353 705.351501,518.150330 
	C704.799500,519.819519 704.989868,521.757446 704.982239,523.579590 
	C704.931335,535.701782 704.913513,547.824158 704.669800,559.725037 
	C703.586243,558.172119 702.717957,556.840637 701.304016,554.672424 
	C700.673157,558.615906 700.517212,561.697449 699.653625,564.565918 
	C697.636475,571.266785 694.929321,577.774048 693.169189,584.533569 
	C691.719421,590.101318 688.399780,595.380249 683.608093,595.015442 
	C677.629150,594.560303 669.859924,598.502441 666.136658,589.734619 
	C665.562134,588.381775 663.932678,587.102600 662.499207,586.559082 
	C658.212830,584.933899 657.235840,581.835449 656.917175,577.588013 
	C655.946777,564.654968 660.680664,551.815308 657.407471,538.875916 
	C657.293640,538.425842 657.554504,537.893066 657.568054,537.396912 
	C657.843689,527.312073 658.530334,517.215698 658.262695,507.144867 
	C657.967834,496.050018 656.407898,484.988037 656.135742,473.893646 
	C655.945679,466.149719 657.486511,458.367004 657.354980,450.616913 
	C657.218140,442.558563 658.928528,435.970764 665.081604,430.108429 
	C670.698792,424.756622 684.722534,424.541565 688.238831,431.579132 
	C691.964233,439.035370 700.329529,440.195190 705.162354,446.295227 
	C712.596252,454.439880 719.984192,462.192627 727.115173,470.174835 
	C730.833496,474.337067 735.014587,478.484222 737.276489,483.421661 
	C739.049988,487.292877 740.439697,488.263153 744.080139,486.925201 
	C745.321960,486.468811 746.661377,486.277679 747.956177,485.965332 
	C750.378235,486.636719 751.007019,492.385437 755.533081,488.527649 
	C757.313232,488.847504 758.998535,489.759735 759.836365,489.257721 
	C763.089050,487.308868 766.227844,485.093018 769.116760,482.633240 
	C772.745911,479.543060 776.066040,476.092194 779.560547,472.841125 
	C783.169495,469.483612 787.116272,466.440125 790.408813,462.800995 
	C799.401184,452.861816 808.133362,442.687073 816.955261,432.593933 
	C822.067688,426.744781 834.255676,424.159424 839.050415,428.828979 
	C842.179321,431.876160 845.069641,436.472504 845.540161,440.658905 
	C846.378601,448.118561 845.242615,455.791901 845.057251,463.378876 
	C844.981812,466.464417 845.155579,469.562927 845.357483,472.646301 
	C845.548218,475.559387 846.094543,478.455811 846.172058,481.367859 
	C846.251221,484.341339 845.722351,487.335327 845.857483,490.302185 
	C846.289185,499.778259 847.135193,509.239746 847.391296,518.718445 
	C847.698547,530.088562 847.464233,541.472351 847.649719,552.847107 
	C847.815491,563.012817 848.768127,573.394104 844.262085,582.827515 
	C840.744263,590.192017 833.769836,597.416138 825.211548,593.314636 
	C820.322021,590.971313 815.370117,586.639465 812.885132,581.919067 
	C809.571167,575.624023 808.160400,568.167419 806.841736,561.041382 
	C806.047180,556.747498 804.487122,556.477661 801.208008,557.489319 
	C801.143860,545.320374 801.176514,533.614624 800.967712,521.913147 
	C800.941650,520.453186 799.637390,519.016052 798.925293,517.568298 
M794.526367,513.965332 
	C794.526367,513.965332 794.522522,513.997437 794.526367,513.965332 
z"/>
<path fill="#697847" opacity="1.000000" stroke="none" 
	d="
M333.092804,471.893372 
	C338.653931,478.095978 343.982971,484.031494 349.702728,490.402222 
	C352.976654,486.969849 356.088806,483.816895 359.080292,480.553345 
	C382.032257,455.514099 405.037292,430.522552 427.811646,405.322571 
	C431.121521,401.660095 434.378204,399.962616 439.368744,400.092224 
	C451.924805,400.418365 451.943695,400.193604 451.944458,412.682678 
	C451.948303,475.670868 451.944794,538.659058 451.943878,601.647217 
	C451.943848,603.796997 451.943878,605.946777 451.943878,608.701111 
	C446.258423,608.988708 441.045563,610.219971 435.907562,606.839478 
	C424.514069,599.343201 412.983734,592.051575 401.415497,584.826538 
	C398.381744,582.931763 397.313629,580.642212 397.349731,577.055542 
	C397.524200,559.727295 397.417358,542.396240 397.410553,525.066223 
	C397.409698,522.942810 397.410400,520.819397 397.410400,517.190613 
	C394.951416,519.383362 393.476166,520.535339 392.191528,521.870667 
	C383.069275,531.353149 373.915283,540.807007 364.929535,550.417786 
	C361.873505,553.686401 359.488220,554.013489 355.801880,551.000549 
	C321.260254,522.768982 289.389618,491.921753 262.236145,456.400482 
	C258.296967,451.247345 254.396042,446.049225 250.808350,440.651947 
	C249.601410,438.836212 248.905975,436.348480 248.860733,434.149658 
	C248.658524,424.322632 248.888062,414.487091 248.718491,404.658813 
	C248.656540,401.068817 250.203064,400.486145 253.451950,400.094452 
	C263.645386,398.865601 270.981354,401.924500 277.933197,410.177795 
	C295.624451,431.181122 314.474457,451.208405 333.092804,471.893372 
M430.125275,436.891541 
	C428.347870,437.095276 426.570496,437.299011 424.296906,437.559601 
	C426.169098,442.588470 424.093781,443.868164 419.718597,443.699432 
	C418.115845,443.637634 416.244080,444.789978 414.861298,445.861267 
	C410.664246,449.112823 405.954163,452.045563 402.719727,456.116211 
	C397.793182,462.316406 391.675751,467.600433 387.195282,473.774414 
	C382.903168,479.688843 377.854675,483.255859 371.988281,486.587769 
	C368.706757,488.451538 365.470673,490.403778 362.292938,492.439240 
	C359.488068,494.235901 356.813202,497.760834 354.044952,497.797363 
	C346.382019,497.898529 338.699768,496.581421 331.029755,495.781433 
	C330.869812,495.764740 330.764832,495.221283 330.241119,494.027527 
	C331.122620,493.648010 332.342987,493.122559 334.057861,492.384247 
	C330.493347,490.966339 327.677429,490.503723 325.732361,488.950531 
	C319.642883,484.087952 313.867035,478.830933 307.997345,473.695099 
	C300.278320,466.941132 292.621521,460.115112 284.829529,453.446838 
	C283.991882,452.729980 282.017914,452.259888 281.320221,452.747406 
	C280.534058,453.296814 280.049255,455.242371 280.388794,456.262817 
	C281.561127,459.786194 282.471588,463.710419 284.700592,466.512482 
	C292.954163,476.887970 301.303009,487.246460 310.400360,496.869873 
	C315.819733,502.602631 320.511810,509.868713 329.519623,511.200378 
	C330.906647,511.405426 332.237000,512.932434 333.317108,514.103149 
	C336.858978,517.942139 340.143127,522.024658 343.770081,525.778015 
	C348.228912,530.392273 353.932526,529.703491 359.215057,528.119202 
	C368.550446,525.319458 377.728058,521.976379 386.904022,518.672729 
	C389.632629,517.690308 392.247314,516.258118 394.710510,514.708252 
	C397.390656,513.021912 399.513550,512.876709 400.498871,516.255432 
	C403.445038,526.358704 406.215729,536.513000 409.100006,546.634583 
	C409.460510,547.899658 410.045410,549.109192 410.605438,550.307556 
	C412.474091,554.305847 414.425598,558.265991 416.255371,562.281738 
	C417.837372,565.753723 418.931305,569.501099 420.879181,572.743347 
	C426.659851,582.365173 434.599060,581.489502 440.748352,573.921021 
	C447.515167,565.592529 453.085419,555.789734 451.072876,543.812561 
	C450.515167,540.493469 450.709045,537.439514 447.275787,535.231323 
	C444.293518,533.313171 444.700378,529.896851 447.534149,527.778381 
	C452.146759,524.330139 452.525116,515.544861 448.055969,511.974091 
	C444.968872,509.507568 444.144287,507.595490 448.246368,505.299652 
	C451.933502,503.236053 452.186737,493.368958 448.813568,490.815826 
	C443.767975,486.996826 443.384308,478.126892 448.089417,474.074341 
	C451.824310,470.857483 452.050507,466.939789 448.228058,464.126434 
	C444.844330,461.636017 445.259094,460.069611 448.406311,457.759766 
	C452.078430,455.064728 451.590942,451.557587 447.758514,448.971893 
	C446.454407,448.092010 444.855835,446.945343 444.425690,445.591949 
	C442.277161,438.832031 436.740295,437.671112 430.125275,436.891541 
z"/>
<path fill="#687746" opacity="1.000000" stroke="none" 
	d="
M561.024963,574.970154 
	C560.686707,574.505554 560.348450,574.041016 559.871948,573.139404 
	C559.607117,572.508728 559.468567,572.324097 559.318115,572.148438 
	C559.318115,572.148438 559.088013,571.949585 558.946411,571.595337 
	C558.562073,570.842651 558.319397,570.444214 558.076721,570.045837 
	C558.076721,570.045837 558.001953,570.039246 558.174561,569.776001 
	C558.899292,569.007385 559.451294,568.502014 560.014526,568.012695 
	C560.025696,568.028870 559.996460,568.003540 559.940918,567.706299 
	C559.345459,564.730469 557.898987,564.615112 555.919617,566.006409 
	C552.889587,561.059692 549.990295,556.024902 546.749512,551.220337 
	C545.782959,549.787354 543.893494,548.121155 542.369507,548.062927 
	C534.226929,547.751892 526.066101,547.916260 517.154480,547.916260 
	C517.154480,568.265930 517.154480,588.300720 517.154480,608.717651 
	C499.178833,608.717651 481.961090,608.717651 464.278748,608.717651 
	C464.188812,606.754333 464.036591,604.977417 464.036316,603.200500 
	C464.025452,537.544739 464.079285,471.888855 463.926117,406.233459 
	C463.914886,401.418152 465.223450,400.045685 470.049927,400.081787 
	C498.376953,400.293549 526.709290,399.928558 555.034180,400.252441 
	C578.746948,400.523590 599.456726,408.102478 614.651978,427.357544 
	C636.105835,454.543457 635.167419,497.406189 612.432129,523.532349 
	C608.662415,527.864319 604.142700,531.543701 599.735107,535.748230 
	C606.139282,546.311768 612.502319,556.807434 618.879395,568.025024 
	C617.848694,572.797729 617.355957,576.195496 622.449646,578.536438 
	C624.346130,579.407959 624.978882,583.368408 625.844177,586.031982 
	C626.477600,587.981934 626.549438,590.114258 626.871582,592.165222 
	C627.332275,592.132507 627.792908,592.099731 628.253601,592.066956 
	C629.140137,590.382568 630.026611,588.698242 630.913147,587.013855 
	C631.238281,587.484375 631.563354,587.954956 631.865845,588.990967 
	C632.067139,590.997375 632.663879,592.504395 632.423096,593.863037 
	C632.102234,595.674255 631.605225,598.328613 630.355042,598.947937 
	C625.190979,601.506165 619.878662,604.133667 614.316467,605.439880 
	C603.967896,607.870117 593.731567,607.737732 583.783020,602.569153 
	C576.425232,598.746582 576.109070,599.245056 576.255432,591.165405 
	C576.309814,588.167542 575.705994,586.034058 572.272339,585.320679 
	C571.101807,585.077515 569.485168,583.687561 569.291748,582.603882 
	C568.438049,577.821045 564.815430,576.377625 561.024963,574.970154 
M593.773682,540.606750 
	C594.107300,533.174500 597.863159,526.784851 600.416199,520.102722 
	C603.945251,510.866119 608.467041,502.008057 612.593872,493.001770 
	C613.002808,492.109344 613.419556,490.930664 614.174377,490.532166 
	C620.533020,487.175476 620.662903,481.578979 620.102722,475.469513 
	C619.832275,472.520050 620.850586,469.418610 620.385010,466.531128 
	C619.975647,463.992554 618.960022,460.643433 617.071228,459.433960 
	C612.646057,456.600311 609.773315,453.399414 609.530579,447.981659 
	C609.478699,446.824799 608.363831,445.654663 607.588623,444.601105 
	C602.580505,437.794891 597.130066,431.665039 590.089111,426.557587 
	C583.280090,421.618439 576.332336,417.931091 568.233276,416.289185 
	C560.246460,414.670044 552.225830,413.205444 544.190918,411.845062 
	C542.471436,411.553925 540.619812,411.936005 538.841309,412.124054 
	C535.284119,412.500244 531.695984,413.525879 528.189941,413.282990 
	C511.848053,412.150848 495.597382,411.358459 480.566895,419.641022 
	C477.297668,421.442505 474.518127,424.989502 471.144684,425.562042 
	C464.643311,426.665344 464.985443,430.739410 464.988831,435.355927 
	C465.023285,482.156158 465.007751,528.956421 465.017578,575.756714 
	C465.017944,577.586243 464.858978,579.485046 465.298462,581.218750 
	C465.553802,582.225952 466.931946,583.772644 467.673523,583.701843 
	C473.502594,583.144958 477.245209,586.244690 481.041626,590.082336 
	C485.072418,594.156799 493.875580,594.148743 496.336090,590.140625 
	C498.555878,586.524658 499.769043,582.298218 501.511841,578.379150 
	C502.564362,576.012329 503.210602,573.038391 505.027222,571.515869 
	C511.018341,566.494629 513.956116,559.883789 515.251038,552.634033 
	C516.068970,548.054443 518.292603,547.007446 522.323059,546.930115 
	C530.958191,546.764587 539.586792,546.249023 548.221863,546.096741 
	C549.278076,546.078186 550.547729,547.230835 551.392639,548.142639 
	C554.393677,551.381531 556.714539,555.568176 560.270386,557.914734 
	C570.112366,564.409485 575.616394,574.117981 580.835144,584.008606 
	C582.620178,587.391785 584.145203,589.195312 587.977966,588.012268 
	C590.434692,587.254028 592.341858,587.305054 593.667847,590.239746 
	C594.239441,591.504822 596.372253,592.662720 597.892822,592.800781 
	C606.006226,593.537476 613.096008,584.532471 610.625488,576.676453 
	C610.315369,575.690308 608.506592,574.357300 607.630005,574.514160 
	C604.448792,575.083557 604.697937,572.946167 604.045410,571.039734 
	C600.701599,561.269226 602.990234,549.531982 593.893372,541.761597 
	C593.793823,541.676514 593.819702,541.444702 593.773682,540.606750 
z"/>
<path fill="#677645" opacity="1.000000" stroke="none" 
	d="
M403.292999,642.283508 
	C408.925690,642.018860 414.516571,641.670532 418.367828,647.975708 
	C419.601868,649.996033 424.450653,650.878357 427.406494,650.484863 
	C430.546844,650.066833 431.686127,651.097229 433.548828,653.067993 
	C435.366821,654.991577 438.087067,656.186340 440.586700,657.311218 
	C443.951843,658.825623 447.479645,659.981567 450.947754,661.263794 
	C455.103149,662.800171 459.269470,664.307068 463.430573,665.827942 
	C467.215302,667.211304 470.991577,668.618286 474.786407,669.973206 
	C477.595612,670.976318 480.415527,671.953857 483.257507,672.858398 
	C484.358063,673.208557 485.875183,672.943542 486.619843,673.609863 
	C493.318756,679.604309 502.633148,678.164368 510.158783,681.933411 
	C511.970001,682.840515 515.033569,681.246948 517.521240,680.803345 
	C517.164856,679.022217 516.823669,677.237732 516.442078,675.461914 
	C516.338989,674.982056 515.877869,674.468262 515.979187,674.071838 
	C518.069214,665.898254 513.926575,670.724487 510.330200,670.300171 
	C504.014801,669.555054 497.400848,666.399353 492.312195,662.449402 
	C490.042450,660.687561 489.095581,658.471863 485.640991,659.057312 
	C484.011414,659.333435 481.942841,658.734497 480.457733,657.870789 
	C470.468658,652.061646 460.111542,646.708740 450.885010,639.848022 
	C446.941284,636.915466 441.284332,633.426636 441.928467,626.315308 
	C458.620453,634.239746 474.983856,643.005798 491.863678,650.628174 
	C521.615112,664.062927 552.465759,674.287781 584.945740,678.747925 
	C601.966309,681.085144 619.058533,681.294373 636.801086,678.076660 
	C639.038025,678.772705 640.520691,679.388184 641.987793,680.014893 
	C641.972229,680.026184 641.996521,679.996521 642.426392,679.983582 
	C649.718933,679.406494 656.581665,678.842346 663.444397,678.278198 
	C663.742432,678.924561 664.040405,679.570923 664.338379,680.217346 
	C659.727356,680.739258 657.411072,682.637512 658.654724,687.077209 
	C658.786804,687.548950 657.172974,689.091736 656.283142,689.170837 
	C651.420593,689.602966 650.247986,693.239929 649.046021,696.944275 
	C648.519897,697.244446 647.993713,697.544556 646.834656,697.950867 
	C644.817444,698.690308 643.433228,699.323608 642.048950,699.956909 
	C642.048950,699.956909 642.013489,700.051086 641.715576,700.103394 
	C640.946350,700.383179 640.475098,700.610657 640.003845,700.838135 
	C640.003845,700.838074 639.640503,701.031006 639.082642,700.976868 
	C636.693848,701.614197 634.863037,702.305664 633.032166,702.997131 
	C619.223938,707.307922 605.035950,708.208984 590.714539,707.447815 
	C543.819885,704.955200 500.284454,689.996033 458.108398,670.686218 
	C439.507477,662.170105 421.673187,651.979431 403.292999,642.283508 
z"/>
<path fill="#677746" opacity="1.000000" stroke="none" 
	d="
M801.231018,557.953796 
	C804.487122,556.477661 806.047180,556.747498 806.841736,561.041382 
	C808.160400,568.167419 809.571167,575.624023 812.885132,581.919067 
	C815.370117,586.639465 820.322021,590.971313 825.211548,593.314636 
	C833.769836,597.416138 840.744263,590.192017 844.262085,582.827515 
	C848.768127,573.394104 847.815491,563.012817 847.649719,552.847107 
	C847.464233,541.472351 847.698547,530.088562 847.391296,518.718445 
	C847.135193,509.239746 846.289185,499.778259 845.857483,490.302185 
	C845.722351,487.335327 846.251221,484.341339 846.172058,481.367859 
	C846.094543,478.455811 845.548218,475.559387 845.357483,472.646301 
	C845.155579,469.562927 844.981812,466.464417 845.057251,463.378876 
	C845.242615,455.791901 846.378601,448.118561 845.540161,440.658905 
	C845.069641,436.472504 842.179321,431.876160 839.050415,428.828979 
	C834.255676,424.159424 822.067688,426.744781 816.955261,432.593933 
	C808.133362,442.687073 799.401184,452.861816 790.408813,462.800995 
	C787.116272,466.440125 783.169495,469.483612 779.560547,472.841125 
	C776.066040,476.092194 772.745911,479.543060 769.116760,482.633240 
	C766.227844,485.093018 763.089050,487.308868 759.836365,489.257721 
	C758.998535,489.759735 757.313232,488.847504 755.816467,488.305237 
	C758.546570,484.762054 761.477478,481.498596 764.865112,478.135864 
	C765.629761,478.051239 765.937683,478.065826 766.245605,478.080414 
	C766.113831,477.698608 765.982117,477.316803 765.850342,476.934998 
	C775.738464,466.009430 785.601379,455.060913 795.525879,444.168549 
	C800.077820,439.172729 804.750854,434.287231 809.839661,429.004059 
	C810.532959,428.406555 810.755493,428.156616 810.978088,427.906677 
	C810.978088,427.906708 810.984192,427.988342 811.118896,427.805298 
	C811.532593,427.195526 811.811584,426.768829 812.090576,426.342163 
	C812.090576,426.342163 812.137085,426.162048 812.442383,425.974548 
	C813.144714,425.429382 813.541748,425.071716 813.938843,424.714050 
	C813.938843,424.714050 813.765747,424.783142 814.054321,424.801208 
	C814.560669,424.880829 814.778442,424.942413 815.007812,425.020386 
	C815.019287,425.036835 815.003967,424.996246 815.013306,424.676392 
	C815.026001,423.929565 815.029419,423.502594 815.032837,423.075623 
	C815.032837,423.075623 815.276306,422.681458 815.750122,422.645874 
	C818.144714,422.412415 820.065491,422.214569 822.001587,422.063141 
	C822.016907,422.109589 822.011353,421.994537 821.875854,421.704834 
	C821.152466,420.277466 820.564514,419.139801 819.976562,418.002167 
	C819.976562,418.002167 819.966858,417.967194 820.363403,417.938416 
	C823.421326,416.144440 826.181091,414.507874 828.712097,412.572205 
	C830.657227,411.084625 832.051025,408.375732 834.160217,407.718231 
	C837.464966,406.688019 841.136047,406.953522 842.598206,402.774994 
	C842.680054,402.541138 845.067810,402.679901 846.011841,403.254242 
	C851.258606,406.445953 854.112488,410.475006 854.077820,417.382874 
	C853.779724,476.706421 853.856750,536.032227 853.991577,595.356995 
	C854.005066,601.306946 853.793884,606.420471 846.520508,607.672180 
	C845.956482,607.769287 845.499939,608.490723 844.993469,608.921997 
	C832.640564,608.959717 820.287598,608.997375 807.262817,608.710205 
	C803.904175,606.049316 800.913879,604.271851 801.018982,599.735352 
	C801.341553,585.814026 801.195129,571.881775 801.231018,557.953796 
z"/>
<path fill="#636B3B" opacity="1.000000" stroke="none" 
	d="
M248.487213,550.269958 
	C208.278931,511.629181 172.465591,469.593140 147.746033,419.080963 
	C136.618668,396.343201 128.511505,372.565857 127.329422,347.096893 
	C125.295105,303.266296 146.778198,271.475128 192.476761,261.176361 
	C201.011185,259.253052 209.907654,258.936218 219.463974,257.911072 
	C221.765778,257.814331 223.240631,257.684479 224.715500,257.554626 
	C225.576675,257.500275 226.437866,257.445953 227.883850,257.594971 
	C228.927216,258.137604 229.385757,258.476898 229.844315,258.816193 
	C210.079056,259.955658 190.806976,263.102814 173.449234,273.424683 
	C149.903610,287.426178 138.425217,308.707458 137.008347,335.598175 
	C135.435654,365.445923 145.100449,392.592957 158.157883,418.758881 
	C173.934189,450.373108 194.324295,478.901886 217.674164,505.274658 
	C230.793625,520.092590 244.803040,534.122559 258.209106,548.762573 
	C255.506454,547.828003 253.006226,546.638367 250.238510,545.321472 
	C249.648605,546.988281 249.067902,548.629150 248.487213,550.269958 
z"/>
<path fill="#626939" opacity="1.000000" stroke="none" 
	d="
M691.864502,671.594055 
	C687.105347,688.313232 676.520935,700.475159 661.902283,709.285095 
	C646.013123,718.860901 628.428589,722.759399 610.128601,723.966553 
	C566.399658,726.851013 524.921082,716.510498 484.351746,701.822266 
	C424.111542,680.012146 369.437500,648.005920 318.385345,609.573303 
	C314.270050,606.475281 310.219818,603.286804 306.016785,600.313538 
	C305.365631,599.852905 304.052368,600.328186 302.760254,600.481079 
	C303.191772,598.202759 303.908356,595.814026 304.555359,593.657227 
	C301.572266,589.874756 298.339233,585.775391 295.106171,581.675964 
	C306.780243,590.696899 318.264618,599.976807 330.161163,608.694153 
	C382.647247,647.153625 438.792725,678.911560 500.362518,700.534363 
	C526.638977,709.762451 553.553650,716.654541 581.383240,718.725098 
	C606.138367,720.566895 630.654541,719.310852 653.586304,707.956543 
	C670.864380,699.401550 683.421936,686.498047 691.055176,668.033325 
	C691.621155,666.739319 691.862793,666.001160 692.104431,665.263062 
	C692.104431,665.263062 692.062073,665.177734 692.207031,665.431641 
	C692.565125,666.457275 692.778198,667.228943 692.991272,668.000671 
	C692.968994,668.174927 692.946777,668.349121 692.734314,669.022949 
	C692.317566,670.213074 692.091003,670.903564 691.864502,671.594055 
z"/>
<path fill="#677746" opacity="1.000000" stroke="none" 
	d="
M705.009766,445.998474 
	C700.329529,440.195190 691.964233,439.035370 688.238831,431.579132 
	C684.722534,424.541565 670.698792,424.756622 665.081604,430.108429 
	C658.928528,435.970764 657.218140,442.558563 657.354980,450.616913 
	C657.486511,458.367004 655.945679,466.149719 656.135742,473.893646 
	C656.407898,484.988037 657.967834,496.050018 658.262695,507.144867 
	C658.530334,517.215698 657.843689,527.312073 657.568054,537.396912 
	C657.554504,537.893066 657.293640,538.425842 657.407471,538.875916 
	C660.680664,551.815308 655.946777,564.654968 656.917175,577.588013 
	C657.235840,581.835449 658.212830,584.933899 662.499207,586.559082 
	C663.932678,587.102600 665.562134,588.381775 666.136658,589.734619 
	C669.859924,598.502441 677.629150,594.560303 683.608093,595.015442 
	C688.399780,595.380249 691.719421,590.101318 693.169189,584.533569 
	C694.929321,577.774048 697.636475,571.266785 699.653625,564.565918 
	C700.517212,561.697449 700.673157,558.615906 701.304016,554.672424 
	C702.717957,556.840637 703.586243,558.172119 704.689331,560.199097 
	C704.939026,570.519287 705.023132,580.144775 704.914429,589.768005 
	C704.890808,591.857849 704.905762,594.739441 703.651062,595.883911 
	C698.809937,600.299622 694.021484,605.005249 686.958191,605.967834 
	C674.897644,607.611572 663.142029,607.497925 652.259033,600.502197 
	C652.212585,539.142395 652.189697,478.248352 652.178833,417.354340 
	C652.178650,416.193481 652.186218,415.004974 652.418945,413.876617 
	C653.368652,409.273682 660.558655,402.970581 662.807617,405.010315 
	C666.783325,408.616272 670.986206,406.334656 675.029419,407.097687 
	C675.395935,407.170624 675.742371,407.133484 676.299316,407.094116 
	C676.509766,407.091919 676.927856,407.043610 676.927856,407.043610 
	C676.927856,407.043610 676.984192,407.026764 677.066833,407.382172 
	C678.714050,409.513428 680.278687,411.289246 681.843262,413.065063 
	C681.843262,413.065063 681.976807,413.452148 682.044067,414.043884 
	C682.280579,419.682434 685.651672,421.755798 689.895996,423.018188 
	C690.516724,423.461517 691.137451,423.904816 691.845215,424.912292 
	C692.431458,427.059937 692.474060,429.091461 693.510559,430.147705 
	C697.516968,434.230499 701.840393,438.002167 706.092346,442.167847 
	C705.762573,443.630096 705.386169,444.814270 705.009766,445.998474 
z"/>
<path fill="#677746" opacity="1.000000" stroke="none" 
	d="
M295.026001,581.749268 
	C298.339233,585.775391 301.572266,589.874756 304.555359,593.657227 
	C303.908356,595.814026 303.191772,598.202759 302.657349,600.810059 
	C302.866486,602.397400 302.893463,603.766174 302.613098,605.699951 
	C301.536285,607.163147 300.766846,608.061340 299.997406,608.959595 
	C284.393829,608.998108 268.789215,608.948730 253.187515,609.140808 
	C249.574799,609.185303 248.704453,607.732483 248.716644,604.439453 
	C248.782440,586.677673 248.688950,568.915344 248.568802,550.711548 
	C249.067902,548.629150 249.648605,546.988281 250.238510,545.321472 
	C253.006226,546.638367 255.506454,547.828003 258.376709,549.040955 
	C258.746704,549.064270 258.889984,549.090088 258.950836,549.421631 
	C259.968048,550.515564 260.924408,551.278015 261.880768,552.040466 
	C272.485870,561.452942 283.090973,570.865356 294.042419,580.751465 
	C294.620575,581.480103 294.852356,581.735046 295.084137,581.989990 
	C295.084137,581.989990 294.945801,581.822510 295.026001,581.749268 
z"/>
<path fill="#647141" opacity="1.000000" stroke="none" 
	d="
M234.388794,296.960999 
	C234.355438,294.739227 234.167679,292.211761 235.163559,290.301361 
	C237.263245,286.273621 236.473358,283.120117 233.776016,279.800415 
	C229.909805,275.042236 225.444839,271.706604 218.559631,272.056427 
	C228.583359,271.761047 239.148056,270.329437 249.421387,271.486023 
	C265.512146,273.297485 281.406006,276.858154 298.038971,280.002808 
	C299.638977,280.525635 300.583221,280.723572 301.527496,280.921539 
	C301.857666,280.903259 302.179321,280.947327 302.881531,281.453705 
	C305.914246,288.080322 305.038422,290.201050 299.096985,291.959961 
	C298.618042,291.943329 298.139130,291.926727 297.047302,291.679688 
	C294.623596,291.299652 292.812744,291.150024 291.001892,291.000427 
	C275.316132,290.580353 259.581787,289.430634 244.211136,293.948425 
	C241.045212,294.878937 237.916489,295.936096 234.388794,296.960999 
z"/>
<path fill="#667342" opacity="1.000000" stroke="none" 
	d="
M714.436523,525.262817 
	C715.847656,524.442200 717.396606,523.908691 718.945618,523.375122 
	C718.750671,523.772888 718.555786,524.170654 718.360840,524.568359 
	C721.134949,526.454468 723.907288,528.343262 726.686157,530.222412 
	C726.955872,530.404785 727.526917,530.539978 727.520325,530.675842 
	C727.124695,538.833191 737.181824,536.414673 739.337891,542.272949 
	C739.790894,543.503967 742.729370,544.271973 744.599609,544.451721 
	C752.846985,545.244324 760.900391,544.890564 767.543335,538.861267 
	C768.259033,538.211670 769.204651,537.636353 770.133118,537.430664 
	C774.513123,536.460632 778.526306,535.154236 778.499695,528.633240 
	C780.818420,530.555847 782.141663,531.653015 783.710938,532.886597 
	C775.168457,542.326477 766.431030,551.679077 757.562012,560.905151 
	C754.673889,563.909607 751.014709,563.760071 747.988892,560.609253 
	C736.806641,548.965149 725.705872,537.242798 714.436523,525.262817 
z"/>
<path fill="#636B3B" opacity="1.000000" stroke="none" 
	d="
M649.386353,696.875305 
	C650.247986,693.239929 651.420593,689.602966 656.283142,689.170837 
	C657.172974,689.091736 658.786804,687.548950 658.654724,687.077209 
	C657.411072,682.637512 659.727356,680.739258 664.338379,680.217346 
	C664.040405,679.570923 663.742432,678.924561 663.444397,678.278198 
	C656.581665,678.842346 649.718933,679.406494 642.428101,679.985352 
	C642.000000,680.000000 642.003418,680.003601 642.003418,680.003662 
	C640.520691,679.388184 639.038025,678.772705 637.219482,678.058594 
	C646.576050,675.053162 655.946777,671.467773 664.553528,664.855347 
	C665.404602,664.380188 665.700989,664.151428 665.997314,663.922729 
	C665.997314,663.922668 665.990967,663.992004 666.141052,663.812683 
	C666.526184,663.388794 666.761169,663.144287 666.996216,662.899719 
	C666.996216,662.899719 666.975830,662.999512 667.122253,662.816895 
	C667.501099,662.375427 667.733521,662.116699 667.965942,661.857971 
	C667.965942,661.857971 667.927734,661.992432 668.110352,661.790710 
	C668.835510,660.974854 669.377991,660.360718 669.920471,659.746521 
	C669.920471,659.746521 669.912964,659.935913 670.069031,659.738892 
	C670.814697,658.700989 671.404297,657.860168 671.993896,657.019348 
	C672.092957,656.705750 672.266907,656.441467 673.057007,656.032104 
	C676.117920,656.630066 678.637695,657.422546 681.157410,658.214966 
	C681.088928,658.624451 681.020508,659.033936 680.719849,659.988037 
	C680.335938,660.879456 680.184204,661.226196 680.032471,661.572876 
	C675.722351,676.413086 666.049866,686.940735 653.200745,694.903320 
	C652.080017,695.597778 650.886475,696.174744 649.386353,696.875305 
z"/>
<path fill="#626939" opacity="1.000000" stroke="none" 
	d="
M299.432770,292.145630 
	C305.038422,290.201050 305.914246,288.080322 303.110596,281.539581 
	C317.953705,286.426605 332.953033,291.638733 347.963409,296.818848 
	C350.767151,297.786438 353.615112,298.625702 356.922455,300.049255 
	C360.542969,301.738647 363.683716,302.903015 366.824463,304.067352 
	C367.401855,304.249054 367.979279,304.430786 368.750366,305.172028 
	C368.305939,307.155975 367.667786,308.580414 367.029633,310.004822 
	C367.029633,310.004822 366.976715,310.036224 366.700867,309.861023 
	C365.645569,309.445129 364.866089,309.204407 364.086609,308.963684 
	C364.086609,308.963684 364.026276,308.994537 363.743286,308.746826 
	C361.906006,308.029327 360.351715,307.559570 358.797424,307.089783 
	C358.797424,307.089783 358.371918,307.036102 357.896790,306.827667 
	C356.836517,306.447327 356.251404,306.275421 355.666290,306.103516 
	C355.666290,306.103516 355.281250,306.023010 354.879669,305.789337 
	C353.972565,305.377197 353.467010,305.198730 352.961487,305.020264 
	C352.794037,304.989410 352.626617,304.958588 351.963776,304.744171 
	C350.946747,304.386414 350.425110,304.212250 349.903473,304.038055 
	C349.903473,304.038055 349.421387,303.972595 348.928009,303.779541 
	C347.884949,303.418243 347.335266,303.249969 346.785583,303.081726 
	C335.973053,300.373962 325.183197,297.570435 314.337616,295.002350 
	C309.539459,293.866241 304.628357,293.207031 299.432770,292.145630 
M308.040405,288.988770 
	C308.040405,288.988770 308.035034,289.031281 308.040405,288.988770 
z"/>
<path fill="#667342" opacity="1.000000" stroke="none" 
	d="
M561.088257,575.317261 
	C564.815430,576.377625 568.438049,577.821045 569.291748,582.603882 
	C569.485168,583.687561 571.101807,585.077515 572.272339,585.320679 
	C575.705994,586.034058 576.309814,588.167542 576.255432,591.165405 
	C576.109070,599.245056 576.425232,598.746582 583.783020,602.569153 
	C593.731567,607.737732 603.967896,607.870117 614.316467,605.439880 
	C619.878662,604.133667 625.190979,601.506165 630.355042,598.947937 
	C631.605225,598.328613 632.102234,595.674255 632.423096,593.863037 
	C632.663879,592.504395 632.067139,590.997375 631.937500,589.272583 
	C635.546509,594.972168 641.740356,599.890625 639.494202,608.645752 
	C638.271301,608.785645 636.850342,609.086304 635.428650,609.089661 
	C618.599182,609.129272 601.769226,609.062439 584.940552,609.186340 
	C581.747803,609.209778 579.832947,608.230652 578.227417,605.328247 
	C572.705688,595.346130 566.868530,585.538513 561.088257,575.317261 
z"/>
<path fill="#5D5C31" opacity="1.000000" stroke="none" 
	d="
M367.274811,310.251099 
	C367.667786,308.580414 368.305939,307.155975 368.975037,305.377350 
	C388.591888,314.928986 408.510284,324.238953 427.661377,334.924194 
	C443.770172,343.911926 458.986084,354.500000 474.843689,364.595398 
	C475.090179,364.811096 475.127838,364.753448 475.127838,364.753448 
	C473.904022,364.328583 472.542175,364.121796 471.476471,363.447144 
	C438.473450,342.555206 403.976379,324.605286 367.274811,310.251099 
z"/>
<path fill="#626939" opacity="1.000000" stroke="none" 
	d="
M845.441284,608.998779 
	C845.499939,608.490723 845.956482,607.769287 846.520508,607.672180 
	C853.793884,606.420471 854.005066,601.306946 853.991577,595.356995 
	C853.856750,536.032227 853.779724,476.706421 854.077820,417.382874 
	C854.112488,410.475006 851.258606,406.445953 846.011841,403.254242 
	C845.067810,402.679901 842.680054,402.541138 842.598206,402.774994 
	C841.136047,406.953522 837.464966,406.688019 834.160217,407.718231 
	C832.051025,408.375732 830.657227,411.084625 828.712097,412.572205 
	C826.181091,414.507874 823.421326,416.144440 820.380798,417.943481 
	C824.601318,412.730713 828.968628,407.247284 833.934570,402.373901 
	C835.539062,400.799377 838.706055,400.259460 841.175293,400.216217 
	C854.883240,399.976196 854.893982,400.078491 854.894836,413.683594 
	C854.898804,475.970520 854.921631,538.257446 854.870483,600.544373 
	C854.863098,609.559143 856.510986,609.326355 845.441284,608.998779 
z"/>
<path fill="#667342" opacity="1.000000" stroke="none" 
	d="
M652.283813,600.968079 
	C663.142029,607.497925 674.897644,607.611572 686.958191,605.967834 
	C694.021484,605.005249 698.809937,600.299622 703.651062,595.883911 
	C704.905762,594.739441 704.890808,591.857849 704.914429,589.768005 
	C705.023132,580.144775 704.939026,570.519287 704.904541,560.420532 
	C704.913513,547.824158 704.931335,535.701782 704.982239,523.579590 
	C704.989868,521.757446 704.799500,519.819519 705.351501,518.150330 
	C705.810852,516.761353 707.226074,515.688538 708.217896,514.475708 
	C709.321350,515.472595 710.783142,516.276489 711.447205,517.509949 
	C712.535950,519.531982 713.106567,521.833008 713.954468,524.353516 
	C711.996948,522.169556 709.980591,519.648499 707.964294,517.127380 
	C707.295959,517.539124 706.627625,517.950806 705.959290,518.362549 
	C705.959290,520.437805 705.960205,522.513062 705.959167,524.588318 
	C705.945374,550.899231 705.837952,577.210815 706.010376,603.520508 
	C706.038635,607.837341 704.947388,609.291626 700.459290,609.205811 
	C684.645813,608.903625 668.824524,609.011963 652.561401,608.440552 
	C652.172363,605.600342 652.228088,603.284241 652.283813,600.968079 
z"/>
<path fill="#5D5C31" opacity="1.000000" stroke="none" 
	d="
M652.259033,600.502197 
	C652.228088,603.284241 652.172363,605.600342 652.106750,608.347839 
	C651.782471,606.866211 651.194275,604.953491 651.193176,603.040344 
	C651.156067,537.800964 651.171021,472.561615 651.190063,407.322235 
	C651.192200,400.103455 651.224060,400.101776 658.309570,400.063324 
	C659.973755,400.054291 661.664490,400.251526 663.297485,400.025513 
	C668.550354,399.298401 672.776733,400.776978 675.807617,405.762665 
	C675.897705,406.174500 675.739746,406.413818 675.603271,406.498169 
	C675.291443,406.709229 675.129639,406.851257 674.988953,407.004150 
	C674.996582,406.999664 675.009399,406.987610 675.009399,406.987610 
	C670.986206,406.334656 666.783325,408.616272 662.807617,405.010315 
	C660.558655,402.970581 653.368652,409.273682 652.418945,413.876617 
	C652.186218,415.004974 652.178650,416.193481 652.178833,417.354340 
	C652.189697,478.248352 652.212585,539.142395 652.259033,600.502197 
z"/>
<path fill="#647141" opacity="1.000000" stroke="none" 
	d="
M705.162354,446.295197 
	C705.386169,444.814270 705.762573,443.630096 706.277893,441.979584 
	C706.665344,441.259216 706.913879,441.005157 707.162476,440.751129 
	C720.669495,455.621948 734.176514,470.492767 747.819824,485.664459 
	C746.661377,486.277679 745.321960,486.468811 744.080139,486.925201 
	C740.439697,488.263153 739.049988,487.292877 737.276489,483.421661 
	C735.014587,478.484222 730.833496,474.337067 727.115173,470.174835 
	C719.984192,462.192627 712.596252,454.439880 705.162354,446.295197 
z"/>
<path fill="#677645" opacity="1.000000" stroke="none" 
	d="
M340.223389,601.290344 
	C343.325806,601.400940 346.620209,601.670715 349.852997,602.271912 
	C350.790680,602.446228 352.058960,603.421021 352.312134,604.282593 
	C354.045776,610.181824 359.429779,610.582214 363.951904,612.290833 
	C364.236633,612.398376 364.642731,612.177185 364.933197,612.278564 
	C365.808899,612.584167 367.373444,612.919373 367.404999,613.338318 
	C367.847504,619.206299 379.593567,616.592163 376.166168,625.425659 
	C364.191681,617.655762 352.291809,609.615723 340.223389,601.290344 
z"/>
<path fill="#5D5C31" opacity="1.000000" stroke="none" 
	d="
M681.371033,657.895752 
	C678.637695,657.422546 676.117920,656.630066 673.257690,655.901245 
	C676.470642,647.369141 680.023926,638.773438 683.598206,630.127136 
	C684.649353,639.177002 684.214966,648.424011 681.371033,657.895752 
z"/>
<path fill="#626939" opacity="1.000000" stroke="none" 
	d="
M801.208008,557.489319 
	C801.195129,571.881775 801.341553,585.814026 801.018982,599.735352 
	C800.913879,604.271851 803.904175,606.049316 806.797668,608.650879 
	C800.135071,609.361694 800.116516,609.361694 800.110596,602.494690 
	C800.088562,576.875000 800.093384,551.255310 800.044250,525.635681 
	C800.039490,523.161499 799.730591,520.687866 799.244019,517.891113 
	C799.637390,519.016052 800.941650,520.453186 800.967712,521.913147 
	C801.176514,533.614624 801.143860,545.320374 801.208008,557.489319 
z"/>
<path fill="#667342" opacity="1.000000" stroke="none" 
	d="
M630.805298,586.687073 
	C630.026611,588.698242 629.140137,590.382568 628.253601,592.066956 
	C627.792908,592.099731 627.332275,592.132507 626.871582,592.165222 
	C626.549438,590.114258 626.477600,587.981934 625.844177,586.031982 
	C624.978882,583.368408 624.346130,579.407959 622.449646,578.536438 
	C617.355957,576.195496 617.848694,572.797729 618.957031,568.367798 
	C619.622498,568.806885 620.224548,569.625061 620.847168,570.924438 
	C621.252502,571.907043 621.637268,572.408386 622.022034,572.909668 
	C624.913818,577.393188 627.805603,581.876709 630.805298,586.687073 
M619.482727,575.480835 
	C619.482727,575.480835 619.486877,575.513000 619.482727,575.480835 
z"/>
<path fill="#626939" opacity="1.000000" stroke="none" 
	d="
M707.032471,440.444122 
	C706.913879,441.005157 706.665344,441.259216 706.231262,441.701538 
	C701.840393,438.002167 697.516968,434.230499 693.510559,430.147705 
	C692.474060,429.091461 692.431458,427.059937 692.010254,425.159790 
	C697.026367,429.941132 701.964417,435.039124 707.032471,440.444122 
z"/>
<path fill="#677645" opacity="1.000000" stroke="none" 
	d="
M378.416260,627.196289 
	C379.782074,626.684875 381.409576,626.041687 382.922791,626.245850 
	C385.594971,626.606262 388.197571,627.482910 391.719360,628.366821 
	C391.378021,629.432373 390.729309,631.457336 389.953735,633.811218 
	C386.093384,631.908875 382.359924,629.677551 378.416260,627.196289 
z"/>
<path fill="#677645" opacity="1.000000" stroke="none" 
	d="
M390.078217,634.403442 
	C392.467896,634.212097 395.122711,633.977112 397.657776,634.422913 
	C401.219482,635.049194 402.647675,637.757141 402.947998,641.546021 
	C398.744385,639.505432 394.517151,637.084473 390.078217,634.403442 
z"/>
<path fill="#5D5C31" opacity="1.000000" stroke="none" 
	d="
M693.220459,667.705200 
	C692.778198,667.228943 692.565125,666.457275 692.246582,665.405151 
	C693.623230,657.890686 695.105286,650.656616 696.587402,643.422607 
	C696.837830,643.460693 697.088318,643.498840 697.338745,643.536987 
	C696.042419,651.494568 694.746033,659.452148 693.220459,667.705200 
z"/>
<path fill="#667342" opacity="1.000000" stroke="none" 
	d="
M784.324646,532.813354 
	C784.753296,530.015930 784.932129,526.741028 786.443726,524.287109 
	C787.164795,523.116516 790.418518,523.505981 792.913086,523.257080 
	C790.408020,526.441162 787.515015,529.557068 784.324646,532.813354 
z"/>
<path fill="#647141" opacity="1.000000" stroke="none" 
	d="
M210.598953,273.056274 
	C210.497681,274.244263 209.979370,275.402405 209.230011,276.779907 
	C208.998962,276.999298 208.988861,276.990875 208.988861,276.990875 
	C208.259995,276.819244 207.035660,276.300018 206.875961,276.527649 
	C204.106964,280.474670 201.655579,278.617798 198.922318,276.014587 
	C202.495956,274.871674 206.338928,273.949066 210.598953,273.056274 
z"/>
<path fill="#677645" opacity="1.000000" stroke="none" 
	d="
M329.377930,593.316284 
	C335.938232,593.607605 339.355530,595.890076 340.043518,600.639038 
	C336.514526,598.495239 333.033447,596.037537 329.377930,593.316284 
z"/>
<path fill="#636B3B" opacity="1.000000" stroke="none" 
	d="
M689.857300,422.673492 
	C685.651672,421.755798 682.280579,419.682434 682.090454,414.243286 
	C684.652649,416.676880 687.235657,419.502838 689.857300,422.673492 
z"/>
<path fill="#5D5C31" opacity="1.000000" stroke="none" 
	d="
M230.322418,258.879578 
	C229.385757,258.476898 228.927216,258.137604 228.313187,257.650085 
	C234.068512,257.501862 239.979324,257.501862 245.890121,257.501862 
	C245.893661,257.982239 245.897186,258.462616 245.900711,258.942993 
	C240.867310,258.942993 235.833923,258.942993 230.322418,258.879578 
z"/>
<path fill="#677645" opacity="1.000000" stroke="none" 
	d="
M439.903351,624.678223 
	C436.603943,624.595032 432.636932,625.154663 431.352722,620.076294 
	C432.393250,620.314392 433.486572,620.912659 434.763184,621.775513 
	C434.946533,622.040039 435.003418,622.021179 435.003418,622.021179 
	C436.571014,622.818542 438.138611,623.615967 439.903351,624.678223 
z"/>
<path fill="#5D5C31" opacity="1.000000" stroke="none" 
	d="
M366.572754,303.840698 
	C363.683716,302.903015 360.542969,301.738647 357.203308,300.296539 
	C360.109955,301.217194 363.215515,302.415619 366.572754,303.840698 
z"/>
<path fill="#626939" opacity="1.000000" stroke="none" 
	d="
M819.687012,418.125549 
	C820.564514,419.139801 821.152466,420.277466 821.869263,421.708893 
	C821.998169,422.002655 821.986267,422.016724 821.986267,422.016724 
	C820.065491,422.214569 818.144714,422.412415 815.931152,422.501404 
	C816.891418,421.011322 818.144470,419.630127 819.687012,418.125549 
z"/>
<path fill="#636B3B" opacity="1.000000" stroke="none" 
	d="
M560.003357,567.996582 
	C559.451294,568.502014 558.899292,569.007385 558.177795,569.738647 
	C557.347412,568.861755 556.686401,567.759094 555.972534,566.331421 
	C557.898987,564.615112 559.345459,564.730469 559.942688,567.704529 
	C560.000000,568.000000 560.003357,567.996582 560.003357,567.996582 
z"/>
<path fill="#647141" opacity="1.000000" stroke="none" 
	d="
M223.325043,302.883087 
	C223.419098,300.448456 224.141510,298.361298 227.659729,299.887512 
	C226.488235,300.931244 225.063812,301.864563 223.325043,302.883087 
z"/>
<path fill="#636B3B" opacity="1.000000" stroke="none" 
	d="
M633.398071,702.981079 
	C634.863037,702.305664 636.693848,701.614197 638.878784,701.005005 
	C637.409973,701.713135 635.586975,702.339050 633.398071,702.981079 
z"/>
<path fill="#5D5C31" opacity="1.000000" stroke="none" 
	d="
M681.799683,412.735596 
	C680.278687,411.289246 678.714050,409.513428 677.060303,407.410828 
	C678.566162,408.858124 680.161133,410.632141 681.799683,412.735596 
z"/>
<path fill="#667342" opacity="1.000000" stroke="none" 
	d="
M795.523438,521.140015 
	C796.007446,520.285950 796.781860,519.301147 797.861572,518.197266 
	C797.382446,519.055176 796.598145,520.032227 795.523438,521.140015 
z"/>
<path fill="#626939" opacity="1.000000" stroke="none" 
	d="
M300.374420,609.018860 
	C300.766846,608.061340 301.536285,607.163147 302.562866,606.108398 
	C302.130493,606.994019 301.440979,608.036072 300.374420,609.018860 
z"/>
<path fill="#5D5C31" opacity="1.000000" stroke="none" 
	d="
M475.065918,364.835571 
	C476.051727,365.525482 477.061737,366.190948 478.071777,366.856445 
	C477.919708,367.071960 477.767670,367.287506 477.615631,367.503052 
	C476.813782,366.781189 476.011932,366.059357 475.168945,365.045471 
	C475.127838,364.753448 475.090179,364.811096 475.065918,364.835571 
z"/>
<path fill="#626939" opacity="1.000000" stroke="none" 
	d="
M291.336914,291.173950 
	C292.812744,291.150024 294.623596,291.299652 296.695190,291.605469 
	C295.194580,291.623627 293.433258,291.485596 291.336914,291.173950 
z"/>
<path fill="#5D5C31" opacity="1.000000" stroke="none" 
	d="
M359.065277,307.316742 
	C360.351715,307.559570 361.906006,308.029327 363.730652,308.715393 
	C362.445068,308.468994 360.889099,308.006348 359.065277,307.316742 
z"/>
<path fill="#636B3B" opacity="1.000000" stroke="none" 
	d="
M261.745239,551.777100 
	C260.924408,551.278015 259.968048,550.515564 258.971313,549.491455 
	C259.823853,549.991089 260.716797,550.752441 261.745239,551.777100 
z"/>
<path fill="#6A7C4A" opacity="1.000000" stroke="none" 
	d="
M765.648071,477.037628 
	C765.982117,477.316803 766.113831,477.698608 766.245605,478.080414 
	C765.937683,478.065826 765.629761,478.051239 765.160522,477.974243 
	C765.058838,477.602936 765.207703,477.345764 765.648071,477.037628 
z"/>
<path fill="#687746" opacity="1.000000" stroke="none" 
	d="
M621.978638,572.633240 
	C621.637268,572.408386 621.252502,571.907043 620.924805,571.225464 
	C621.299683,571.482361 621.617432,571.919617 621.978638,572.633240 
z"/>
<path fill="#636B3B" opacity="1.000000" stroke="none" 
	d="
M642.383911,699.948608 
	C643.433228,699.323608 644.817444,698.690308 646.531677,698.010254 
	C645.480713,698.622437 644.099731,699.281372 642.383911,699.948608 
z"/>
<path fill="#677645" opacity="1.000000" stroke="none" 
	d="
M322.007416,587.549072 
	C322.489197,587.738953 323.151306,588.131836 323.881744,588.738281 
	C323.362610,588.552002 322.775177,588.152039 322.007416,587.549072 
z"/>
<path fill="#5D5C31" opacity="1.000000" stroke="none" 
	d="
M224.357849,257.471069 
	C223.240631,257.684479 221.765778,257.814331 219.897766,257.912506 
	C221.003143,257.716400 222.501678,257.551941 224.357849,257.471069 
z"/>
<path fill="#647141" opacity="1.000000" stroke="none" 
	d="
M216.573624,272.123596 
	C215.469269,272.421906 213.982529,272.671082 212.110565,272.906921 
	C213.213974,272.620544 214.702606,272.347504 216.573624,272.123596 
z"/>
<path fill="#5D5C31" opacity="1.000000" stroke="none" 
	d="
M671.728760,657.185974 
	C671.404297,657.860168 670.814697,658.700989 669.974365,659.735046 
	C670.303589,659.069763 670.883606,658.211182 671.728760,657.185974 
z"/>
<path fill="#667342" opacity="1.000000" stroke="none" 
	d="
M793.500610,523.209229 
	C793.739868,522.725342 794.262573,522.110291 795.038086,521.321716 
	C794.788635,521.791504 794.286316,522.434814 793.500610,523.209229 
z"/>
<path fill="#677645" opacity="1.000000" stroke="none" 
	d="
M324.202332,589.284363 
	C324.607849,589.455872 325.126984,589.853943 325.802429,590.442993 
	C325.411133,590.259705 324.863556,589.885315 324.202332,589.284363 
z"/>
<path fill="#5D5C31" opacity="1.000000" stroke="none" 
	d="
M669.631958,659.877563 
	C669.377991,660.360718 668.835510,660.974854 668.043213,661.771606 
	C668.309998,661.305603 668.826721,660.657104 669.631958,659.877563 
z"/>
<path fill="#5D5C31" opacity="1.000000" stroke="none" 
	d="
M364.325378,309.169006 
	C364.866089,309.204407 365.645569,309.445129 366.694244,309.830994 
	C366.163666,309.775543 365.363892,309.574951 364.325378,309.169006 
z"/>
<path fill="#5D5C31" opacity="1.000000" stroke="none" 
	d="
M691.917114,665.496460 
	C691.862793,666.001160 691.621155,666.739319 691.240906,667.734375 
	C691.311401,667.237488 691.520569,666.483704 691.917114,665.496460 
z"/>
<path fill="#677645" opacity="1.000000" stroke="none" 
	d="
M327.017792,591.398621 
	C327.444336,591.585449 328.004761,592.002991 328.726807,592.625854 
	C328.309479,592.430603 327.730560,592.029968 327.017792,591.398621 
z"/>
<path fill="#5D5C31" opacity="1.000000" stroke="none" 
	d="
M692.057861,671.384949 
	C692.091003,670.903564 692.317566,670.213074 692.669983,669.278442 
	C692.614319,669.748108 692.432739,670.461975 692.057861,671.384949 
z"/>
<path fill="#626939" opacity="1.000000" stroke="none" 
	d="
M301.224579,280.700867 
	C300.583221,280.723572 299.638977,280.525635 298.362305,280.199188 
	C298.993835,280.207184 299.957764,280.343689 301.224579,280.700867 
z"/>
<path fill="#626939" opacity="1.000000" stroke="none" 
	d="
M813.655090,424.756805 
	C813.541748,425.071716 813.144714,425.429382 812.523926,425.929932 
	C812.657288,425.648376 813.014343,425.223969 813.655090,424.756805 
z"/>
<path fill="#636B3B" opacity="1.000000" stroke="none" 
	d="
M640.279419,700.839233 
	C640.475098,700.610657 640.946350,700.383179 641.668457,700.085693 
	C641.464539,700.290588 641.009827,700.565491 640.279419,700.839233 
z"/>
<path fill="#5D5C31" opacity="1.000000" stroke="none" 
	d="
M347.004181,303.288208 
	C347.335266,303.249969 347.884949,303.418243 348.695923,303.706665 
	C348.379089,303.716156 347.800934,303.605438 347.004181,303.288208 
z"/>
<path fill="#5D5C31" opacity="1.000000" stroke="none" 
	d="
M350.102173,304.250183 
	C350.425110,304.212250 350.946747,304.386414 351.716339,304.680908 
	C351.409821,304.688263 350.855347,304.575256 350.102173,304.250183 
z"/>
<path fill="#5D5C31" opacity="1.000000" stroke="none" 
	d="
M353.140381,305.240448 
	C353.467010,305.198730 353.972565,305.377197 354.711609,305.687195 
	C354.403168,305.699341 353.861237,305.579987 353.140381,305.240448 
z"/>
<path fill="#5D5C31" opacity="1.000000" stroke="none" 
	d="
M355.908295,306.306030 
	C356.251404,306.275421 356.836517,306.447327 357.698730,306.745422 
	C357.367310,306.750641 356.758820,306.629608 355.908295,306.306030 
z"/>
<path fill="#667342" opacity="1.000000" stroke="none" 
	d="
M558.107422,570.288086 
	C558.319397,570.444214 558.562073,570.842651 558.899536,571.450684 
	C558.708923,571.283630 558.423523,570.906982 558.107422,570.288086 
z"/>
<path fill="#626939" opacity="1.000000" stroke="none" 
	d="
M811.865906,426.484436 
	C811.811584,426.768829 811.532593,427.195526 811.078125,427.808289 
	C811.148804,427.538513 811.395020,427.082611 811.865906,426.484436 
z"/>
<path fill="#626939" opacity="1.000000" stroke="none" 
	d="
M814.794250,423.192322 
	C815.029419,423.502594 815.026001,423.929565 815.011292,424.678284 
	C815.000000,425.000000 814.996277,425.003967 814.996277,425.003967 
	C814.778442,424.942413 814.560669,424.880829 814.019775,424.714661 
	C813.983032,424.176361 814.269348,423.742676 814.794250,423.192322 
z"/>
<path fill="#5D5C31" opacity="1.000000" stroke="none" 
	d="
M666.736938,662.989380 
	C666.761169,663.144287 666.526184,663.388794 666.106506,663.808228 
	C666.107178,663.681824 666.292419,663.380432 666.736938,662.989380 
z"/>
<path fill="#5D5C31" opacity="1.000000" stroke="none" 
	d="
M667.709595,661.961182 
	C667.733521,662.116699 667.501099,662.375427 667.072388,662.806519 
	C667.068481,662.674011 667.260864,662.369202 667.709595,661.961182 
z"/>
<path fill="#5D5C31" opacity="1.000000" stroke="none" 
	d="
M665.707642,663.981812 
	C665.700989,664.151428 665.404602,664.380188 664.874512,664.767822 
	C664.899841,664.631409 665.158875,664.336182 665.707642,663.981812 
z"/>
<path fill="#5D5C31" opacity="1.000000" stroke="none" 
	d="
M680.237183,661.361450 
	C680.184204,661.226196 680.335938,660.879456 680.625549,660.285278 
	C680.656189,660.408508 680.549072,660.779236 680.237183,661.361450 
z"/>
<path fill="#677645" opacity="1.000000" stroke="none" 
	d="
M431.040039,619.741821 
	C430.862518,619.795593 430.641571,619.601501 430.268311,619.251343 
	C430.454346,619.124207 430.747894,619.257141 431.040039,619.741821 
z"/>
<path fill="#677645" opacity="1.000000" stroke="none" 
	d="
M377.070068,626.246826 
	C377.197021,626.205933 377.421204,626.374634 377.793091,626.693665 
	C377.622162,626.842041 377.364349,626.712830 377.070068,626.246826 
z"/>
<path fill="#5D5C31" opacity="1.000000" stroke="none" 
	d="
M676.845642,406.815552 
	C676.927856,407.043610 676.509766,407.091919 676.257202,407.054688 
	C676.004700,407.017456 675.919800,406.939331 675.873352,406.808441 
	C675.826904,406.677551 675.739746,406.413818 675.739746,406.413818 
	C675.739746,406.413818 675.897705,406.174500 675.977417,406.055389 
	C676.351257,406.089722 676.586670,406.306793 676.845642,406.815552 
z"/>
<path fill="#626939" opacity="1.000000" stroke="none" 
	d="
M295.031555,581.716064 
	C294.852356,581.735046 294.620575,581.480103 294.231506,581.020142 
	C294.375793,581.024170 294.677368,581.233154 295.031555,581.716064 
z"/>
<path fill="#667342" opacity="1.000000" stroke="none" 
	d="
M559.356201,572.325684 
	C559.468567,572.324097 559.607117,572.508728 559.823792,572.848755 
	C559.684143,572.890747 559.510925,572.726624 559.356201,572.325684 
z"/>
<path fill="#626939" opacity="1.000000" stroke="none" 
	d="
M810.725586,427.994507 
	C810.755493,428.156616 810.532959,428.406555 810.118774,428.818817 
	C810.109131,428.681580 810.291077,428.381958 810.725586,427.994507 
z"/>
<path fill="#647141" opacity="1.000000" stroke="none" 
	d="
M232.010712,284.031250 
	C231.994736,284.043182 232.026672,284.019318 232.010712,284.031250 
z"/>
<path fill="#647141" opacity="1.000000" stroke="none" 
	d="
M209.001358,277.003662 
	C209.003754,277.008057 208.901871,277.022369 208.945374,277.006622 
	C208.988861,276.990875 208.998962,276.999298 209.001358,277.003662 
z"/>
<path fill="#647141" opacity="1.000000" stroke="none" 
	d="
M228.484512,297.497742 
	C228.486771,297.513855 228.482254,297.481628 228.484512,297.497742 
z"/>
<path fill="#677645" opacity="1.000000" stroke="none" 
	d="
M328.515259,589.502319 
	C328.513062,589.486023 328.517487,589.518555 328.515259,589.502319 
z"/>
<path fill="#667342" opacity="1.000000" stroke="none" 
	d="
M794.524414,513.981384 
	C794.522522,513.997437 794.526367,513.965332 794.524414,513.981384 
z"/>
<path fill="#6B7D4B" opacity="1.000000" stroke="none" 
	d="
M430.508057,436.866669 
	C436.740295,437.671112 442.277161,438.832031 444.425690,445.591949 
	C444.855835,446.945343 446.454407,448.092010 447.758514,448.971893 
	C451.590942,451.557587 452.078430,455.064728 448.406311,457.759766 
	C445.259094,460.069611 444.844330,461.636017 448.228058,464.126434 
	C452.050507,466.939789 451.824310,470.857483 448.089417,474.074341 
	C443.384308,478.126892 443.767975,486.996826 448.813568,490.815826 
	C452.186737,493.368958 451.933502,503.236053 448.246368,505.299652 
	C444.144287,507.595490 444.968872,509.507568 448.055969,511.974091 
	C452.525116,515.544861 452.146759,524.330139 447.534149,527.778381 
	C444.700378,529.896851 444.293518,533.313171 447.275787,535.231323 
	C450.709045,537.439514 450.515167,540.493469 451.072876,543.812561 
	C453.085419,555.789734 447.515167,565.592529 440.748352,573.921021 
	C434.599060,581.489502 426.659851,582.365173 420.879181,572.743347 
	C418.931305,569.501099 417.837372,565.753723 416.255371,562.281738 
	C414.425598,558.265991 412.474091,554.305847 410.605438,550.307556 
	C410.045410,549.109192 409.460510,547.899658 409.100006,546.634583 
	C406.215729,536.513000 403.445038,526.358704 400.498871,516.255432 
	C399.513550,512.876709 397.390656,513.021912 394.710510,514.708252 
	C392.247314,516.258118 389.632629,517.690308 386.904022,518.672729 
	C377.728058,521.976379 368.550446,525.319458 359.215057,528.119202 
	C353.932526,529.703491 348.228912,530.392273 343.770081,525.778015 
	C340.143127,522.024658 336.858978,517.942139 333.317108,514.103149 
	C332.237000,512.932434 330.906647,511.405426 329.519623,511.200378 
	C320.511810,509.868713 315.819733,502.602631 310.400360,496.869873 
	C301.303009,487.246460 292.954163,476.887970 284.700592,466.512482 
	C282.471588,463.710419 281.561127,459.786194 280.388794,456.262817 
	C280.049255,455.242371 280.534058,453.296814 281.320221,452.747406 
	C282.017914,452.259888 283.991882,452.729980 284.829529,453.446838 
	C292.621521,460.115112 300.278320,466.941132 307.997345,473.695099 
	C313.867035,478.830933 319.642883,484.087952 325.732361,488.950531 
	C327.677429,490.503723 330.493347,490.966339 334.057861,492.384247 
	C332.342987,493.122559 331.122620,493.648010 330.241119,494.027527 
	C330.764832,495.221283 330.869812,495.764740 331.029755,495.781433 
	C338.699768,496.581421 346.382019,497.898529 354.044952,497.797363 
	C356.813202,497.760834 359.488068,494.235901 362.292938,492.439240 
	C365.470673,490.403778 368.706757,488.451538 371.988281,486.587769 
	C377.854675,483.255859 382.903168,479.688843 387.195282,473.774414 
	C391.675751,467.600433 397.793182,462.316406 402.719727,456.116211 
	C405.954163,452.045563 410.664246,449.112823 414.861298,445.861267 
	C416.244080,444.789978 418.115845,443.637634 419.718597,443.699432 
	C424.093781,443.868164 426.169098,442.588470 424.296906,437.559601 
	C426.570496,437.299011 428.347870,437.095276 430.508057,436.866669 
M338.206146,510.744415 
	C338.360992,509.662201 338.515869,508.579987 338.670715,507.497742 
	C337.935944,507.607697 337.201202,507.717621 336.466431,507.827576 
	C336.882904,508.819641 337.299408,509.811707 338.206146,510.744415 
M432.949768,559.658020 
	C433.031677,559.602722 433.113617,559.547424 433.195557,559.492188 
	C433.120148,559.426758 433.044739,559.361328 432.969330,559.295959 
	C432.934265,559.390808 432.899200,559.485596 432.949768,559.658020 
M345.990448,517.962891 
	C345.990448,517.962891 346.030426,517.968262 345.990448,517.962891 
M424.980347,560.027344 
	C424.980347,560.027344 424.955994,559.994995 424.980347,560.027344 
z"/>
<path fill="#6A7C4A" opacity="1.000000" stroke="none" 
	d="
M593.780396,540.944092 
	C593.819702,541.444702 593.793823,541.676514 593.893372,541.761597 
	C602.990234,549.531982 600.701599,561.269226 604.045410,571.039734 
	C604.697937,572.946167 604.448792,575.083557 607.630005,574.514160 
	C608.506592,574.357300 610.315369,575.690308 610.625488,576.676453 
	C613.096008,584.532471 606.006226,593.537476 597.892822,592.800781 
	C596.372253,592.662720 594.239441,591.504822 593.667847,590.239746 
	C592.341858,587.305054 590.434692,587.254028 587.977966,588.012268 
	C584.145203,589.195312 582.620178,587.391785 580.835144,584.008606 
	C575.616394,574.117981 570.112366,564.409485 560.270386,557.914734 
	C556.714539,555.568176 554.393677,551.381531 551.392639,548.142639 
	C550.547729,547.230835 549.278076,546.078186 548.221863,546.096741 
	C539.586792,546.249023 530.958191,546.764587 522.323059,546.930115 
	C518.292603,547.007446 516.068970,548.054443 515.251038,552.634033 
	C513.956116,559.883789 511.018341,566.494629 505.027222,571.515869 
	C503.210602,573.038391 502.564362,576.012329 501.511841,578.379150 
	C499.769043,582.298218 498.555878,586.524658 496.336090,590.140625 
	C493.875580,594.148743 485.072418,594.156799 481.041626,590.082336 
	C477.245209,586.244690 473.502594,583.144958 467.673523,583.701843 
	C466.931946,583.772644 465.553802,582.225952 465.298462,581.218750 
	C464.858978,579.485046 465.017944,577.586243 465.017578,575.756714 
	C465.007751,528.956421 465.023285,482.156158 464.988831,435.355927 
	C464.985443,430.739410 464.643311,426.665344 471.144684,425.562042 
	C474.518127,424.989502 477.297668,421.442505 480.566895,419.641022 
	C495.597382,411.358459 511.848053,412.150848 528.189941,413.282990 
	C531.695984,413.525879 535.284119,412.500244 538.841309,412.124054 
	C540.619812,411.936005 542.471436,411.553925 544.190918,411.845062 
	C552.225830,413.205444 560.246460,414.670044 568.233276,416.289185 
	C576.332336,417.931091 583.280090,421.618439 590.089111,426.557587 
	C597.130066,431.665039 602.580505,437.794891 607.588623,444.601105 
	C608.363831,445.654663 609.478699,446.824799 609.530579,447.981659 
	C609.773315,453.399414 612.646057,456.600311 617.071228,459.433960 
	C618.960022,460.643433 619.975647,463.992554 620.385010,466.531128 
	C620.850586,469.418610 619.832275,472.520050 620.102722,475.469513 
	C620.662903,481.578979 620.533020,487.175476 614.174377,490.532166 
	C613.419556,490.930664 613.002808,492.109344 612.593872,493.001770 
	C608.467041,502.008057 603.945251,510.866119 600.416199,520.102722 
	C597.863159,526.784851 594.107300,533.174500 593.780396,540.944092 
M574.962952,486.963989 
	C574.962952,486.963989 575.092957,486.914459 575.665405,486.537842 
	C576.095886,486.286591 576.504272,485.982452 576.960144,485.791992 
	C584.203796,482.765686 587.454041,474.773254 584.189392,467.514496 
	C583.644226,466.302277 582.293091,464.840820 581.114929,464.634857 
	C576.871826,463.893036 576.740845,461.031067 577.278992,457.908234 
	C577.939819,454.073059 577.074463,451.073944 573.741638,448.807922 
	C572.685669,448.089966 571.938354,446.876160 571.148376,445.815796 
	C565.712097,438.518829 560.612732,437.130066 552.151245,439.902649 
	C546.831177,441.645905 541.393066,443.242645 535.959778,439.252991 
	C534.471558,438.160217 531.523376,438.605743 529.357178,438.985016 
	C525.508728,439.658875 521.650146,440.559540 517.989380,441.895477 
	C516.281555,442.518738 514.011475,444.192108 513.728699,445.711853 
	C511.764954,456.264893 510.191681,466.893463 508.678528,477.524170 
	C508.473480,478.964539 508.836670,481.444580 509.734833,481.912964 
	C513.162415,483.700592 512.922729,486.606476 513.013123,489.607727 
	C513.123108,493.260834 513.173340,496.933807 513.634216,500.549133 
	C513.814026,501.959015 514.876709,504.200287 515.826843,504.362061 
	C517.550598,504.655548 519.612671,503.927216 521.290588,503.120270 
	C522.138489,502.712494 522.455200,501.200104 523.667236,500.078156 
	C524.106567,500.115662 524.545898,500.153137 525.089355,500.902588 
	C526.255493,502.609497 527.041809,505.031433 528.658508,505.890015 
	C533.624634,508.527557 538.822510,509.659180 544.782043,509.726532 
	C553.089355,509.820404 560.091919,506.666260 566.945312,503.377655 
	C571.133972,501.367706 574.341614,496.926788 577.310974,493.056793 
	C577.983032,492.180939 575.837463,489.143250 574.962952,486.963989 
M513.518616,547.482483 
	C513.518616,547.482483 513.486633,547.486389 513.518616,547.482483 
M513.518372,545.482239 
	C513.518372,545.482239 513.486450,545.486084 513.518372,545.482239 
z"/>
<path fill="#636B3B" opacity="1.000000" stroke="none" 
	d="
M559.998230,568.001770 
	C559.996460,568.003540 560.025696,568.028870 560.014526,568.012695 
	C560.003357,567.996582 560.000000,568.000000 559.998230,568.001770 
z"/>
<path fill="#636B3B" opacity="1.000000" stroke="none" 
	d="
M641.998291,679.998291 
	C641.996521,679.996521 641.972229,680.026184 641.987793,680.014893 
	C642.003418,680.003601 642.000000,680.000000 641.998291,679.998291 
z"/>
<path fill="#626939" opacity="1.000000" stroke="none" 
	d="
M822.004761,421.998596 
	C822.011353,421.994537 822.016907,422.109589 822.001587,422.063171 
	C821.986267,422.016724 821.998169,422.002655 822.004761,421.998596 
z"/>
<path fill="#626939" opacity="1.000000" stroke="none" 
	d="
M815.001953,424.998108 
	C815.003967,424.996246 815.019287,425.036835 815.007812,425.020386 
	C814.996277,425.003967 815.000000,425.000000 815.001953,424.998108 
z"/>
<path fill="#5D5C31" opacity="1.000000" stroke="none" 
	d="
M676.046753,407.056885 
	C675.742371,407.133484 675.395935,407.170624 675.029419,407.097687 
	C675.009399,406.987610 674.996582,406.999664 675.223999,406.992004 
	C675.451355,406.984314 675.919800,406.939331 675.919800,406.939331 
	C675.919800,406.939331 676.004700,407.017456 676.046753,407.056885 
z"/>
<path fill="#647141" opacity="1.000000" stroke="none" 
	d="
M308.037720,289.010010 
	C308.035034,289.031281 308.040405,288.988770 308.037720,289.010010 
z"/>
<path fill="#677746" opacity="1.000000" stroke="none" 
	d="
M675.873352,406.808441 
	C675.919800,406.939331 675.451355,406.984314 675.216309,406.996490 
	C675.129639,406.851257 675.291443,406.709229 675.603271,406.498169 
	C675.739746,406.413818 675.826904,406.677551 675.873352,406.808441 
z"/>
<path fill="#687746" opacity="1.000000" stroke="none" 
	d="
M619.484802,575.496948 
	C619.486877,575.513000 619.482727,575.480835 619.484802,575.496948 
z"/>
<path fill="#697948" opacity="1.000000" stroke="none" 
	d="
M435.003723,622.001953 
	C435.003418,622.021179 434.946533,622.040039 434.958893,622.022034 
	C434.971252,622.004028 435.003998,621.982666 435.003723,622.001953 
z"/>
<path fill="#697847" opacity="1.000000" stroke="none" 
	d="
M337.960999,510.774109 
	C337.299408,509.811707 336.882904,508.819641 336.466431,507.827576 
	C337.201202,507.717621 337.935944,507.607697 338.670715,507.497742 
	C338.515869,508.579987 338.360992,509.662201 337.960999,510.774109 
z"/>
<path fill="#697847" opacity="1.000000" stroke="none" 
	d="
M432.906952,559.619263 
	C432.899200,559.485596 432.934265,559.390808 432.969330,559.295959 
	C433.044739,559.361328 433.120148,559.426758 433.195557,559.492188 
	C433.113617,559.547424 433.031677,559.602722 432.906952,559.619263 
z"/>
<path fill="#697847" opacity="1.000000" stroke="none" 
	d="
M346.010437,517.965576 
	C346.030426,517.968262 345.990448,517.962891 346.010437,517.965576 
z"/>
<path fill="#697847" opacity="1.000000" stroke="none" 
	d="
M424.968170,560.011169 
	C424.955994,559.994995 424.980347,560.027344 424.968170,560.011169 
z"/>
<path fill="#000000" opacity="1.000000" stroke="none" 
	d="
M524.985229,500.190613 
	C524.545898,500.153137 524.106567,500.115662 522.913086,500.066650 
	C518.972900,500.275696 516.839111,499.812012 516.902161,495.610596 
	C517.119324,481.141479 517.027466,466.666901 516.953125,452.194946 
	C516.938416,449.341248 517.751160,447.913727 520.901245,447.943420 
	C532.544556,448.053131 544.198608,447.708618 555.830811,448.085846 
	C564.696289,448.373383 571.193420,452.884460 574.873779,461.131409 
	C578.695679,469.695343 577.602844,478.298187 575.092957,486.914459 
	C575.092957,486.914459 574.962952,486.963989 574.721436,487.244385 
	C569.769470,496.899231 561.800964,500.207764 551.755066,500.056274 
	C542.834534,499.921814 533.908691,500.132355 524.985229,500.190613 
z"/>
<path fill="#697847" opacity="1.000000" stroke="none" 
	d="
M575.379150,486.726135 
	C577.602844,478.298187 578.695679,469.695343 574.873779,461.131409 
	C571.193420,452.884460 564.696289,448.373383 555.830811,448.085846 
	C544.198608,447.708618 532.544556,448.053131 520.901245,447.943420 
	C517.751160,447.913727 516.938416,449.341248 516.953125,452.194946 
	C517.027466,466.666901 517.119324,481.141479 516.902161,495.610596 
	C516.839111,499.812012 518.972900,500.275696 522.585449,500.121155 
	C522.455200,501.200104 522.138489,502.712494 521.290588,503.120270 
	C519.612671,503.927216 517.550598,504.655548 515.826843,504.362061 
	C514.876709,504.200287 513.814026,501.959015 513.634216,500.549133 
	C513.173340,496.933807 513.123108,493.260834 513.013123,489.607727 
	C512.922729,486.606476 513.162415,483.700592 509.734833,481.912964 
	C508.836670,481.444580 508.473480,478.964539 508.678528,477.524170 
	C510.191681,466.893463 511.764954,456.264893 513.728699,445.711853 
	C514.011475,444.192108 516.281555,442.518738 517.989380,441.895477 
	C521.650146,440.559540 525.508728,439.658875 529.357178,438.985016 
	C531.523376,438.605743 534.471558,438.160217 535.959778,439.252991 
	C541.393066,443.242645 546.831177,441.645905 552.151245,439.902649 
	C560.612732,437.130066 565.712097,438.518829 571.148376,445.815796 
	C571.938354,446.876160 572.685669,448.089966 573.741638,448.807922 
	C577.074463,451.073944 577.939819,454.073059 577.278992,457.908234 
	C576.740845,461.031067 576.871826,463.893036 581.114929,464.634857 
	C582.293091,464.840820 583.644226,466.302277 584.189392,467.514496 
	C587.454041,474.773254 584.203796,482.765686 576.960144,485.791992 
	C576.504272,485.982452 576.095886,486.286591 575.379150,486.726135 
z"/>
<path fill="#697847" opacity="1.000000" stroke="none" 
	d="
M525.037292,500.546600 
	C533.908691,500.132355 542.834534,499.921814 551.755066,500.056274 
	C561.800964,500.207764 569.769470,496.899231 574.734375,487.312744 
	C575.837463,489.143250 577.983032,492.180939 577.310974,493.056793 
	C574.341614,496.926788 571.133972,501.367706 566.945312,503.377655 
	C560.091919,506.666260 553.089355,509.820404 544.782043,509.726532 
	C538.822510,509.659180 533.624634,508.527557 528.658508,505.890015 
	C527.041809,505.031433 526.255493,502.609497 525.037292,500.546600 
z"/>
<path fill="#687746" opacity="1.000000" stroke="none" 
	d="
M513.502625,547.484436 
	C513.486633,547.486389 513.518616,547.482483 513.502625,547.484436 
z"/>
<path fill="#687746" opacity="1.000000" stroke="none" 
	d="
M513.502441,545.484131 
	C513.486450,545.486084 513.518372,545.482239 513.502441,545.484131 
z"/>
</svg>