<svg version="1.1" id="Layer_1" xmlns="http://www.w3.org/2000/svg" xmlns:xlink="http://www.w3.org/1999/xlink" x="0px" y="0px"
	 width="100%" viewBox="0 0 512 512" enable-background="new 0 0 512 512" xml:space="preserve">
<path fill="#29A71A" opacity="1.000000" stroke="none" 
	d="
M225.000000,0.999999 
	C246.020889,1.000000 267.041779,1.000000 288.470276,1.416154 
	C294.115326,2.875381 299.339478,3.991417 304.592438,4.949591 
	C336.760254,10.817205 366.566437,22.689880 394.222870,40.068306 
	C417.414795,54.641369 437.565186,72.791359 454.999481,93.743675 
	C469.787170,111.515396 481.998474,131.041809 491.277924,152.405960 
	C500.185791,172.914734 506.913513,193.941788 510.105865,216.099045 
	C510.544281,219.141861 512.009949,222.036667 513.000000,225.000000 
	C513.000000,246.020889 513.000000,267.041779 512.583374,288.471893 
	C511.783783,289.722504 511.188293,290.531067 511.052460,291.410645 
	C510.223511,296.779449 509.811249,302.230530 508.687592,307.532898 
	C502.459656,336.920776 491.997925,364.647003 476.305145,390.382751 
	C461.158325,415.223114 442.246185,436.841888 419.940582,455.295227 
	C399.771790,471.980743 377.478210,485.467072 352.957672,495.033539 
	C333.110992,502.776550 312.814026,508.714661 291.563232,511.084961 
	C290.648987,511.186920 289.851746,512.337769 289.000000,513.000000 
	C267.979095,513.000000 246.958206,513.000000 225.529633,512.583862 
	C224.280533,511.784515 223.472229,511.190582 222.592331,511.052368 
	C217.230316,510.210052 211.793289,509.753906 206.488953,508.651031 
	C177.378418,502.598450 149.968002,492.156250 124.432556,476.805878 
	C99.210892,461.644104 77.364006,442.484558 58.690125,419.939362 
	C42.002022,399.791626 28.542137,377.494019 18.972164,352.985138 
	C11.219264,333.129883 5.332544,312.814911 2.915249,291.568634 
	C2.810919,290.651642 1.662206,289.853516 1.000001,289.000000 
	C1.000000,267.645782 1.000000,246.291550 1.412136,224.533844 
	C2.204688,223.457779 2.775217,222.827927 2.937444,222.106277 
	C6.176365,207.698425 8.756114,193.108810 12.727521,178.907852 
	C17.477468,161.923004 24.196428,145.514557 33.862041,130.706848 
	C43.732540,115.585236 53.610096,100.245819 65.400230,86.664803 
	C76.287270,74.124054 89.173615,63.119678 102.146637,52.635494 
	C121.994453,36.595421 144.434189,24.720371 168.442200,16.063906 
	C186.092743,9.699727 204.160355,4.785118 222.934357,2.898208 
	C223.678970,2.823369 224.313950,1.657508 225.000000,0.999999 
M122.763840,171.238052 
	C93.468391,220.236771 90.392349,270.848999 113.174759,323.175323 
	C114.453339,326.111877 114.914200,329.947723 114.299591,333.079224 
	C109.461746,357.728668 104.245544,382.303650 99.199120,406.912445 
	C97.556053,414.924805 100.753723,418.031830 108.651016,416.177582 
	C133.099457,410.437286 157.521393,404.581299 182.011368,399.024750 
	C184.638901,398.428558 187.958099,398.802490 190.428436,399.907196 
	C221.628265,413.859467 254.034454,418.175690 287.515991,411.318329 
	C373.727600,393.661255 427.869598,314.040955 413.061493,227.248734 
	C400.636749,154.425705 335.397949,97.994736 261.463379,97.209633 
	C202.337067,96.581787 156.188797,121.553001 122.763840,171.238052 
z"/>
<path fill="#000000" opacity="1.000000" stroke="none" 
	d="
M513.000000,224.531342 
	C512.009949,222.036667 510.544281,219.141861 510.105865,216.099045 
	C506.913513,193.941788 500.185791,172.914734 491.277924,152.405960 
	C481.998474,131.041809 469.787170,111.515396 454.999481,93.743675 
	C437.565186,72.791359 417.414795,54.641369 394.222870,40.068306 
	C366.566437,22.689880 336.760254,10.817205 304.592438,4.949591 
	C299.339478,3.991417 294.115326,2.875381 288.938904,1.416154 
	C363.593719,1.000000 438.187408,1.000000 513.000000,1.000000 
	C513.000000,75.354088 513.000000,149.708389 513.000000,224.531342 
z"/>
<path fill="#000000" opacity="1.000000" stroke="none" 
	d="
M1.000001,289.468658 
	C1.662206,289.853516 2.810919,290.651642 2.915249,291.568634 
	C5.332544,312.814911 11.219264,333.129883 18.972164,352.985138 
	C28.542137,377.494019 42.002022,399.791626 58.690125,419.939362 
	C77.364006,442.484558 99.210892,461.644104 124.432556,476.805878 
	C149.968002,492.156250 177.378418,502.598450 206.488953,508.651031 
	C211.793289,509.753906 217.230316,510.210052 222.592331,511.052368 
	C223.472229,511.190582 224.280533,511.784515 225.060974,512.583862 
	C150.406296,513.000000 75.812599,513.000000 1.000000,513.000000 
	C1.000000,438.645905 1.000000,364.291626 1.000001,289.468658 
z"/>
<path fill="#000000" opacity="1.000000" stroke="none" 
	d="
M289.468658,513.000000 
	C289.851746,512.337769 290.648987,511.186920 291.563232,511.084961 
	C312.814026,508.714661 333.110992,502.776550 352.957672,495.033539 
	C377.478210,485.467072 399.771790,471.980743 419.940582,455.295227 
	C442.246185,436.841888 461.158325,415.223114 476.305145,390.382751 
	C491.997925,364.647003 502.459656,336.920776 508.687592,307.532898 
	C509.811249,302.230530 510.223511,296.779449 511.052460,291.410645 
	C511.188293,290.531067 511.783783,289.722504 512.583374,288.940552 
	C513.000000,363.593719 513.000000,438.187408 513.000000,513.000000 
	C438.645905,513.000000 364.291626,513.000000 289.468658,513.000000 
z"/>
<path fill="#000000" opacity="1.000000" stroke="none" 
	d="
M224.531342,0.999999 
	C224.313950,1.657508 223.678970,2.823369 222.934357,2.898208 
	C204.160355,4.785118 186.092743,9.699727 168.442200,16.063906 
	C144.434189,24.720371 121.994453,36.595421 102.146637,52.635494 
	C89.173615,63.119678 76.287270,74.124054 65.400230,86.664803 
	C53.610096,100.245819 43.732540,115.585236 33.862041,130.706848 
	C24.196428,145.514557 17.477468,161.923004 12.727521,178.907852 
	C8.756114,193.108810 6.176365,207.698425 2.937444,222.106277 
	C2.775217,222.827927 2.204688,223.457779 1.412136,224.065186 
	C1.000000,149.739456 1.000000,75.478920 1.000000,1.000000 
	C75.354088,1.000000 149.708389,1.000000 224.531342,0.999999 
z"/>
<path fill="#FDFEFD" opacity="1.000000" stroke="none" 
	d="
M122.938919,170.920273 
	C156.188797,121.553001 202.337067,96.581787 261.463379,97.209633 
	C335.397949,97.994736 400.636749,154.425705 413.061493,227.248734 
	C427.869598,314.040955 373.727600,393.661255 287.515991,411.318329 
	C254.034454,418.175690 221.628265,413.859467 190.428436,399.907196 
	C187.958099,398.802490 184.638901,398.428558 182.011368,399.024750 
	C157.521393,404.581299 133.099457,410.437286 108.651016,416.177582 
	C100.753723,418.031830 97.556053,414.924805 99.199120,406.912445 
	C104.245544,382.303650 109.461746,357.728668 114.299591,333.079224 
	C114.914200,329.947723 114.453339,326.111877 113.174759,323.175323 
	C90.392349,270.848999 93.468391,220.236771 122.938919,170.920273 
M311.420837,143.983688 
	C286.097778,131.823242 259.645203,128.661530 232.110947,133.974960 
	C176.828903,144.643036 134.528381,194.587555 132.825882,250.788742 
	C132.095184,274.909393 137.995178,297.198425 149.243896,318.359100 
	C150.649918,321.004089 151.149612,324.716705 150.639038,327.688965 
	C148.838013,338.173492 146.386627,348.545349 144.240005,358.971893 
	C143.322632,363.427673 142.548447,367.912903 141.618851,372.866211 
	C156.427399,369.394470 170.394730,366.315094 184.240524,362.762115 
	C188.744217,361.606384 192.438980,361.982361 196.528030,364.172852 
	C221.982132,377.808319 248.913025,382.662445 277.632538,378.153931 
	C332.696869,369.509766 377.032898,321.517792 380.886841,265.888397 
	C384.477478,214.059341 358.362366,167.887283 311.420837,143.983688 
z"/>
<path fill="#2AA71B" opacity="1.000000" stroke="none" 
	d="
M311.763672,144.133560 
	C358.362366,167.887283 384.477478,214.059341 380.886841,265.888397 
	C377.032898,321.517792 332.696869,369.509766 277.632538,378.153931 
	C248.913025,382.662445 221.982132,377.808319 196.528030,364.172852 
	C192.438980,361.982361 188.744217,361.606384 184.240524,362.762115 
	C170.394730,366.315094 156.427399,369.394470 141.618851,372.866211 
	C142.548447,367.912903 143.322632,363.427673 144.240005,358.971893 
	C146.386627,348.545349 148.838013,338.173492 150.639038,327.688965 
	C151.149612,324.716705 150.649918,321.004089 149.243896,318.359100 
	C137.995178,297.198425 132.095184,274.909393 132.825882,250.788742 
	C134.528381,194.587555 176.828903,144.643036 232.110947,133.974960 
	C259.645203,128.661530 286.097778,131.823242 311.763672,144.133560 
M291.419586,284.823639 
	C289.656342,286.593628 287.899170,288.369720 286.128754,290.132477 
	C280.143677,296.091766 276.002533,296.909912 268.757904,292.824829 
	C263.991516,290.137146 259.350159,287.119080 255.038025,283.755157 
	C242.412125,273.905670 230.291855,263.467560 220.865662,250.349686 
	C216.444611,244.197189 216.676895,239.991608 221.187149,233.987045 
	C223.086121,231.458893 225.733109,229.219055 226.764801,226.384079 
	C227.983704,223.034744 229.150955,218.690506 228.018417,215.639603 
	C224.209396,205.378708 219.559814,195.409882 214.851166,185.510376 
	C211.998474,179.512894 204.799362,176.910583 199.663925,180.624893 
	C187.643677,189.318787 177.894028,199.900620 177.096191,215.881149 
	C176.474945,228.324173 179.443298,240.144608 185.461075,250.887512 
	C203.905457,283.814331 230.621170,308.224304 264.395752,324.695618 
	C272.023987,328.415741 280.693573,330.407104 289.108368,332.028900 
	C311.143158,336.275726 327.717072,327.857025 339.444885,309.008148 
	C344.781738,300.430756 342.036407,292.530426 332.245056,289.639465 
	C323.002655,286.910706 313.671692,284.480927 304.437439,281.726013 
	C299.699249,280.312408 295.591217,280.957672 291.419586,284.823639 
z"/>
<path fill="#FDFEFD" opacity="1.000000" stroke="none" 
	d="
M291.677673,284.563385 
	C295.591217,280.957672 299.699249,280.312408 304.437439,281.726013 
	C313.671692,284.480927 323.002655,286.910706 332.245056,289.639465 
	C342.036407,292.530426 344.781738,300.430756 339.444885,309.008148 
	C327.717072,327.857025 311.143158,336.275726 289.108368,332.028900 
	C280.693573,330.407104 272.023987,328.415741 264.395752,324.695618 
	C230.621170,308.224304 203.905457,283.814331 185.461075,250.887512 
	C179.443298,240.144608 176.474945,228.324173 177.096191,215.881149 
	C177.894028,199.900620 187.643677,189.318787 199.663925,180.624893 
	C204.799362,176.910583 211.998474,179.512894 214.851166,185.510376 
	C219.559814,195.409882 224.209396,205.378708 228.018417,215.639603 
	C229.150955,218.690506 227.983704,223.034744 226.764801,226.384079 
	C225.733109,229.219055 223.086121,231.458893 221.187149,233.987045 
	C216.676895,239.991608 216.444611,244.197189 220.865662,250.349686 
	C230.291855,263.467560 242.412125,273.905670 255.038025,283.755157 
	C259.350159,287.119080 263.991516,290.137146 268.757904,292.824829 
	C276.002533,296.909912 280.143677,296.091766 286.128754,290.132477 
	C287.899170,288.369720 289.656342,286.593628 291.677673,284.563385 
z"/>
</svg>